<?xml version="1.0" encoding="utf-8"?><!-- Uploaded to: SVG Repo, www.svgrepo.com, Generator: SVG Repo Mixer Tools -->
<svg width="100%" height="100%" viewBox="0 0 24 24" fill="none" xmlns="http://www.w3.org/2000/svg">
<path fill-rule="evenodd" clip-rule="evenodd" d="M8 1C8.55229 1 9 1.44772 9 2V3.00228C9.29723 2.99999 9.61798 3 9.96449 3H14.0355C14.382 3 14.7028 2.99999 15 3.00228V2C15 1.44772 15.4477 1 16 1C16.5523 1 17 1.44772 17 2V3.12459C17.3192 3.17902 17.621 3.25947 17.9134 3.3806C19.1386 3.88807 20.1119 4.86144 20.6194 6.08658C20.8305 6.59628 20.9181 7.13456 20.9596 7.74331C21 8.33531 21 9.06272 21 9.96448V13.6035C21 14.7056 21 15.5944 20.9403 16.3138C20.8788 17.0547 20.7487 17.7049 20.4371 18.3049C19.9627 19.2181 19.2181 19.9627 18.3049 20.4371C17.7049 20.7487 17.0547 20.8788 16.3138 20.9403C15.5944 21 14.7056 21 13.6035 21H10.3965C9.29444 21 8.40557 21 7.68616 20.9403C6.94535 20.8788 6.29513 20.7487 5.69513 20.4371C4.78191 19.9627 4.03731 19.2181 3.56293 18.3049C3.25126 17.7049 3.12125 17.0547 3.05972 16.3138C2.99998 15.5944 2.99999 14.7056 3 13.6035V9.96449C2.99999 9.06273 2.99999 8.33531 3.04038 7.74331C3.08191 7.13456 3.16948 6.59628 3.3806 6.08658C3.88807 4.86144 4.86144 3.88807 6.08658 3.3806C6.37901 3.25947 6.68085 3.17902 7 3.12459V2C7 1.44772 7.44772 1 8 1ZM7 5.17476C6.94693 5.19142 6.89798 5.20929 6.85195 5.22836C6.11687 5.53284 5.53284 6.11687 5.22836 6.85195C5.135 7.07733 5.07033 7.37254 5.03574 7.87945C5.01452 8.19046 5.0059 8.55351 5.00239 9H18.9976C18.9941 8.55351 18.9855 8.19046 18.9643 7.87945C18.9297 7.37254 18.865 7.07733 18.7716 6.85195C18.4672 6.11687 17.8831 5.53284 17.1481 5.22836C17.102 5.20929 17.0531 5.19142 17 5.17476V6C17 6.55228 16.5523 7 16 7C15.4477 7 15 6.55228 15 6V5.00239C14.7059 5.00009 14.3755 5 14 5H10C9.62448 5 9.29413 5.00009 9 5.00239V6C9 6.55228 8.55229 7 8 7C7.44772 7 7 6.55228 7 6V5.17476ZM19 11H5V13.56C5 14.7158 5.0008 15.5214 5.05286 16.1483C5.10393 16.7632 5.19909 17.116 5.33776 17.3829C5.62239 17.9309 6.06915 18.3776 6.61708 18.6622C6.88403 18.8009 7.23678 18.8961 7.85168 18.9471C8.47856 18.9992 9.28423 19 10.44 19H13.56C14.7158 19 15.5214 18.9992 16.1483 18.9471C16.7632 18.8961 17.116 18.8009 17.3829 18.6622C17.9309 18.3776 18.3776 17.9309 18.6622 17.3829C18.8009 17.116 18.8961 16.7632 18.9471 16.1483C18.9992 15.5214 19 14.7158 19 13.56V11ZM13 16C13 15.4477 13.4477 15 14 15H16C16.5523 15 17 15.4477 17 16C17 16.5523 16.5523 17 16 17H14C13.4477 17 13 16.5523 13 16Z" fill="#20244f"/>
</svg>