<?xml version="1.0" encoding="UTF-8" standalone="no"?>
<!-- Created with Inkscape (http://www.inkscape.org/) -->

<svg
   xmlns:dc="http://purl.org/dc/elements/1.1/"
   xmlns:cc="http://creativecommons.org/ns#"
   xmlns:rdf="http://www.w3.org/1999/02/22-rdf-syntax-ns#"
   xmlns:svg="http://www.w3.org/2000/svg"
   xmlns="http://www.w3.org/2000/svg"
   xmlns:sodipodi="http://sodipodi.sourceforge.net/DTD/sodipodi-0.dtd"
   xmlns:inkscape="http://www.inkscape.org/namespaces/inkscape"
   width="689.38495"
   height="324.00308"
   id="svg6408"
   version="1.1"
   inkscape:version="0.91 r13725"
   sodipodi:docname="cityscape1.svg">
  <defs
     id="defs6410" />
  <sodipodi:namedview
     id="base"
     pagecolor="#ffffff"
     bordercolor="#666666"
     borderopacity="1.0"
     inkscape:pageopacity="0.0"
     inkscape:pageshadow="2"
     inkscape:zoom="0.99895677"
     inkscape:cx="638.48404"
     inkscape:cy="88.641478"
     inkscape:document-units="cm"
     inkscape:current-layer="g9182"
     showgrid="false"
     units="cm"
     inkscape:window-width="1916"
     inkscape:window-height="1035"
     inkscape:window-x="4"
     inkscape:window-y="1"
     inkscape:window-maximized="1"
     fit-margin-top="0"
     fit-margin-left="0"
     fit-margin-right="0"
     fit-margin-bottom="0" />
  <metadata
     id="metadata6413">
    <rdf:RDF>
      <cc:Work
         rdf:about="">
        <dc:format>image/svg+xml</dc:format>
        <dc:type
           rdf:resource="http://purl.org/dc/dcmitype/StillImage" />
        <dc:title></dc:title>
      </cc:Work>
    </rdf:RDF>
  </metadata>
  <g
     inkscape:label="Capa 1"
     inkscape:groupmode="layer"
     id="layer1"
     transform="translate(-3.7382134,-1041.884)">
    <g
       id="g8891"
       transform="matrix(2.6895576,0,0,2.4955384,-6.3159272,-1230.6435)">
      <g
         id="g9182">
        <g
           id="g9473">
          <rect
             id="rect4445"
             height="101.89091"
             width="256.25797"
             x="3.7382135"
             y="910.63617"
             style="fill:#cfe3ed" />
          <rect
             id="rect4447"
             height="28.346001"
             width="256.41132"
             y="1012.1231"
             x="3.7382135"
             style="fill:#83b81a" />
          <rect
             id="rect4451"
             height="47.896"
             width="256.31909"
             y="964.42004"
             x="3.7382135"
             style="fill:#cfe3ed" />
          <path
             id="path4453"
             d="m 115.30322,973.58912 c 4.31,0 7.822,-3.517 7.822,-7.827 0,-4.31 -3.512,-7.82 -7.822,-7.82 -4.311,0 -7.829,3.51 -7.829,7.82 0,4.31 3.518,7.827 7.829,7.827"
             inkscape:connector-curvature="0"
             style="clip-rule:evenodd;fill:#fdf081;fill-rule:evenodd" />
          <path
             id="path4579"
             d="m 203.67722,999.2991 3.43,0 0,-3.25098 -3.43,0 0,3.25098 z m 3.429,-3.56998 0,0 c -0.006,-0.309 -0.775,-0.557 -1.715,-0.557 -0.939,0 -1.708,0.248 -1.714,0.557 l 0,0.08 3.429,0 0,-0.08 z"
             inkscape:connector-curvature="0"
             style="clip-rule:evenodd;fill:#3b3634;fill-rule:evenodd" />
          <rect
             id="rect4581"
             height="2.5829999"
             width="1.091"
             y="999.0141"
             x="204.89122"
             style="clip-rule:evenodd;fill:#3b3634;fill-rule:evenodd" />
          <polygon
             transform="translate(3.7382156,874.30512)"
             id="polygon4639"
             points="86.266,137.645 62.964,137.645 62.964,123.98 78.504,123.98 78.559,117.039 82.21,113.584 86.266,117.039 "
             style="clip-rule:evenodd;fill:#fdce5d;fill-rule:evenodd" />
          <path
             id="path4641"
             d="m 86.198216,1000.0251 -1.89,0 0,-4.83998 1.89,0 0,4.83998 z m 2.315,-4.83998 0,0 0,4.83998 -1.894,0 0,-4.83998 1.894,0 z"
             inkscape:connector-curvature="0"
             style="clip-rule:evenodd;fill:#ffffff;fill-rule:evenodd" />
          <path
             id="path4643"
             d="m 76.547216,1007.9061 -1.25,0 0,-4.926 1.25,0 0,4.926 z m 2.955,0 0,0 -2.265,0 -0.268,0 0,-4.926 0.268,0 2.265,0 0,4.926 z m 2.28,-4.927 0,0 0,4.926 -0.947,0 -0.947,0 0,-4.926 0.947,0 0.947,0 z"
             inkscape:connector-curvature="0"
             style="clip-rule:evenodd;fill:#ffffff;fill-rule:evenodd" />
          <rect
             id="rect4645"
             height="9.441"
             width="5.1880002"
             y="1002.5081"
             x="68.240211"
             style="clip-rule:evenodd;fill:#20244f;fill-rule:evenodd" />
          <polygon
             transform="translate(3.7382156,874.30512)"
             id="polygon4647"
             points="61.953,125.832 61.953,122.127 78.069,122.127 78.515,122.127 78.515,125.832 "
             style="clip-rule:evenodd;fill:#c78f95;fill-rule:evenodd" />
          <path
             id="path4649"
             d="m 82.253216,997.4411 c -0.047,-0.01 -0.096,-0.01 -0.143,-0.01 -0.097,0 -0.19,0.018 -0.275,0.047 -0.122,0.039 -0.225,0.104 -0.293,0.193 l 0,-1.24298 0.265,0 0.446,0 0,1.00898 z"
             inkscape:connector-curvature="0"
             style="clip-rule:evenodd;fill:#941b1b;fill-rule:evenodd" />
          <path
             id="path4651"
             d="m 81.542216,997.6751 0,1.307 c -0.089,-0.103 -0.221,-0.175 -0.368,-0.211 -0.089,-0.021 -0.186,-0.032 -0.278,-0.029 -0.097,0 -0.19,0.018 -0.275,0.047 -0.126,0.04 -0.229,0.108 -0.3,0.197 l 0,-1.308 c 0.071,-0.089 0.174,-0.157 0.3,-0.196 0.085,-0.029 0.178,-0.047 0.275,-0.047 0.092,0 0.189,0.01 0.278,0.029 0.147,0.036 0.279,0.107 0.368,0.211"
             inkscape:connector-curvature="0"
             style="clip-rule:evenodd;fill:#941b1b;fill-rule:evenodd" />
          <path
             id="path4653"
             d="m 82.253216,1000.0931 c -0.047,0 -0.096,0 -0.143,0 -0.097,0 -0.19,0.018 -0.275,0.046 l -0.293,0 0,-1.154 c 0.068,-0.089 0.171,-0.153 0.293,-0.193 0.085,-0.029 0.178,-0.043 0.275,-0.047 0.047,-10e-4 0.096,0 0.143,0.01 l 0,1.345 z"
             inkscape:connector-curvature="0"
             style="clip-rule:evenodd;fill:#941b1b;fill-rule:evenodd" />
          <path
             id="path4655"
             d="m 80.620216,1000.1361 c 0.085,-0.028 0.179,-0.046 0.275,-0.046 0.093,0 0.189,0 0.279,0.028 0.021,0 0.042,0.011 0.063,0.018 l -0.617,0 z"
             inkscape:connector-curvature="0"
             style="clip-rule:evenodd;fill:#941b1b;fill-rule:evenodd" />
          <path
             id="path4657"
             d="m 80.321216,996.43212 0,1.24598 c -0.086,-0.108 -0.222,-0.178 -0.372,-0.214 -0.089,-0.022 -0.182,-0.033 -0.279,-0.029 -0.093,0 -0.19,0.018 -0.275,0.046 -0.117,0.04 -0.221,0.105 -0.293,0.194 l 0,-1.24298 1.219,0 z"
             inkscape:connector-curvature="0"
             style="clip-rule:evenodd;fill:#941b1b;fill-rule:evenodd" />
          <path
             id="path4659"
             d="m 79.102216,997.6751 0,1.307 c -0.086,-0.103 -0.218,-0.175 -0.368,-0.211 -0.09,-0.021 -0.183,-0.032 -0.278,-0.029 -0.097,0 -0.19,0.018 -0.276,0.047 -0.121,0.04 -0.229,0.108 -0.297,0.197 l 0,-1.308 c 0.068,-0.089 0.176,-0.157 0.297,-0.196 0.086,-0.029 0.179,-0.047 0.276,-0.047 0.095,0 0.188,0.01 0.278,0.029 0.15,0.036 0.282,0.107 0.368,0.211"
             inkscape:connector-curvature="0"
             style="clip-rule:evenodd;fill:#941b1b;fill-rule:evenodd" />
          <path
             id="path4661"
             d="m 80.321216,998.9851 0,1.15 -0.308,0 c -0.021,-0.01 -0.042,-0.013 -0.064,-0.017 -0.089,-0.026 -0.182,-0.032 -0.279,-0.029 -0.093,0 -0.19,0.018 -0.275,0.046 l -0.293,0 0,-1.153 c 0.072,-0.089 0.176,-0.154 0.293,-0.193 0.085,-0.029 0.182,-0.043 0.275,-0.047 0.097,0 0.19,0.01 0.279,0.029 0.149,0.035 0.286,0.112 0.372,0.214"
             inkscape:connector-curvature="0"
             style="clip-rule:evenodd;fill:#941b1b;fill-rule:evenodd" />
          <path
             id="path4663"
             d="m 78.179216,1000.1361 c 0.086,-0.028 0.179,-0.046 0.276,-0.046 0.096,0 0.189,0 0.278,0.028 0.022,0 0.044,0.011 0.065,0.018 l -0.619,0 z"
             inkscape:connector-curvature="0"
             style="clip-rule:evenodd;fill:#941b1b;fill-rule:evenodd" />
          <path
             id="path4665"
             d="m 77.883216,996.43212 0,1.24598 c -0.089,-0.108 -0.222,-0.178 -0.372,-0.214 -0.089,-0.022 -0.186,-0.033 -0.278,-0.029 -0.097,0 -0.19,0.018 -0.275,0.046 -0.122,0.04 -0.225,0.105 -0.294,0.194 l 0,-1.24298 1.219,0 z"
             inkscape:connector-curvature="0"
             style="clip-rule:evenodd;fill:#941b1b;fill-rule:evenodd" />
          <path
             id="path4667"
             d="m 76.664216,997.6751 0,1.307 c -0.089,-0.103 -0.221,-0.175 -0.368,-0.211 -0.089,-0.021 -0.185,-0.032 -0.278,-0.029 -0.097,0 -0.19,0.018 -0.275,0.047 -0.122,0.04 -0.229,0.108 -0.297,0.197 l 0,-1.308 c 0.068,-0.089 0.175,-0.157 0.297,-0.196 0.085,-0.029 0.178,-0.047 0.275,-0.047 0.093,0 0.189,0.01 0.278,0.029 0.147,0.036 0.279,0.107 0.368,0.211"
             inkscape:connector-curvature="0"
             style="clip-rule:evenodd;fill:#941b1b;fill-rule:evenodd" />
          <path
             id="path4669"
             d="m 77.883216,998.9851 0,1.15 -0.307,0 c -0.022,-0.01 -0.043,-0.013 -0.065,-0.017 -0.089,-0.026 -0.186,-0.032 -0.278,-0.029 -0.097,0 -0.19,0.018 -0.275,0.046 l -0.294,0 0,-1.153 c 0.069,-0.089 0.172,-0.154 0.294,-0.193 0.085,-0.029 0.178,-0.043 0.275,-0.047 0.092,0 0.189,0.01 0.278,0.029 0.15,0.035 0.283,0.112 0.372,0.214"
             inkscape:connector-curvature="0"
             style="clip-rule:evenodd;fill:#941b1b;fill-rule:evenodd" />
          <path
             id="path4671"
             d="m 75.743216,1000.1361 c 0.085,-0.028 0.179,-0.046 0.275,-0.046 0.093,0 0.189,0 0.279,0.028 0.021,0 0.042,0.011 0.063,0.018 l -0.617,0 z"
             inkscape:connector-curvature="0"
             style="clip-rule:evenodd;fill:#941b1b;fill-rule:evenodd" />
          <path
             id="path4673"
             d="m 75.446216,996.43212 0,1.24598 c -0.089,-0.108 -0.226,-0.178 -0.372,-0.214 -0.092,-0.022 -0.186,-0.033 -0.282,-0.029 -0.093,0 -0.189,0.018 -0.276,0.046 -0.117,0.04 -0.22,0.105 -0.292,0.194 l 0,-1.24298 1.222,0 z"
             inkscape:connector-curvature="0"
             style="clip-rule:evenodd;fill:#941b1b;fill-rule:evenodd" />
          <path
             id="path4675"
             d="m 74.224216,997.6751 0,1.307 c -0.085,-0.103 -0.218,-0.175 -0.368,-0.211 -0.09,-0.021 -0.183,-0.032 -0.279,-0.029 -0.092,0 -0.189,0.018 -0.275,0.047 -0.122,0.04 -0.225,0.108 -0.297,0.197 l 0,-1.308 c 0.072,-0.089 0.175,-0.157 0.297,-0.196 0.086,-0.029 0.183,-0.047 0.275,-0.047 0.096,0 0.189,0.01 0.279,0.029 0.15,0.036 0.283,0.107 0.368,0.211"
             inkscape:connector-curvature="0"
             style="clip-rule:evenodd;fill:#941b1b;fill-rule:evenodd" />
          <path
             id="path4677"
             d="m 75.446216,998.9851 0,1.15 -0.309,0 c -0.02,-0.01 -0.041,-0.013 -0.063,-0.017 -0.092,-0.026 -0.186,-0.032 -0.282,-0.029 -0.093,0 -0.189,0.018 -0.276,0.046 l -0.292,0 0,-1.153 c 0.072,-0.089 0.175,-0.154 0.292,-0.193 0.087,-0.029 0.183,-0.043 0.276,-0.047 0.096,0 0.19,0.01 0.282,0.029 0.146,0.035 0.284,0.112 0.372,0.214"
             inkscape:connector-curvature="0"
             style="clip-rule:evenodd;fill:#941b1b;fill-rule:evenodd" />
          <path
             id="path4679"
             d="m 73.302216,1000.1361 c 0.085,-0.028 0.183,-0.046 0.275,-0.046 0.096,0 0.189,0 0.279,0.028 0.022,0 0.043,0.011 0.064,0.018 l -0.618,0 z"
             inkscape:connector-curvature="0"
             style="clip-rule:evenodd;fill:#941b1b;fill-rule:evenodd" />
          <path
             id="path4681"
             d="m 73.006216,996.43212 0,1.24598 c -0.089,-0.108 -0.221,-0.178 -0.371,-0.214 -0.09,-0.022 -0.186,-0.033 -0.279,-0.029 -0.097,0 -0.19,0.018 -0.275,0.046 -0.121,0.04 -0.225,0.105 -0.293,0.194 l 0,-1.24298 1.218,0 z"
             inkscape:connector-curvature="0"
             style="clip-rule:evenodd;fill:#941b1b;fill-rule:evenodd" />
          <path
             id="path4683"
             d="m 71.787216,997.6751 0,1.307 c -0.089,-0.103 -0.222,-0.175 -0.368,-0.211 -0.089,-0.021 -0.186,-0.032 -0.278,-0.029 -0.097,0 -0.19,0.018 -0.276,0.047 -0.121,0.04 -0.228,0.108 -0.297,0.197 l 0,-1.308 c 0.069,-0.089 0.176,-0.157 0.297,-0.196 0.086,-0.029 0.179,-0.047 0.276,-0.047 0.092,0 0.189,0.01 0.278,0.029 0.146,0.036 0.279,0.107 0.368,0.211"
             inkscape:connector-curvature="0"
             style="clip-rule:evenodd;fill:#941b1b;fill-rule:evenodd" />
          <path
             id="path4685"
             d="m 73.006216,998.9851 0,1.15 -0.308,0 c -0.021,-0.01 -0.042,-0.013 -0.064,-0.017 -0.09,-0.026 -0.186,-0.032 -0.279,-0.029 -0.097,0 -0.19,0.018 -0.275,0.046 l -0.292,0 0,-1.153 c 0.068,-0.089 0.172,-0.154 0.293,-0.193 0.085,-0.029 0.178,-0.043 0.275,-0.047 0.093,0 0.189,0.01 0.279,0.029 0.149,0.035 0.282,0.112 0.371,0.214"
             inkscape:connector-curvature="0"
             style="clip-rule:evenodd;fill:#941b1b;fill-rule:evenodd" />
          <path
             id="path4687"
             d="m 70.865216,1000.1361 c 0.086,-0.028 0.179,-0.046 0.275,-0.046 0.093,0 0.19,0 0.279,0.028 0.021,0 0.043,0.011 0.063,0.018 l -0.617,0 z"
             inkscape:connector-curvature="0"
             style="clip-rule:evenodd;fill:#941b1b;fill-rule:evenodd" />
          <path
             id="path4689"
             d="m 70.569216,996.43212 0,1.24598 c -0.089,-0.108 -0.225,-0.178 -0.372,-0.214 -0.088,-0.022 -0.186,-0.033 -0.281,-0.029 -0.093,0 -0.19,0.018 -0.276,0.046 -0.117,0.04 -0.221,0.105 -0.293,0.194 l 0,-1.24298 1.222,0 z"
             inkscape:connector-curvature="0"
             style="clip-rule:evenodd;fill:#941b1b;fill-rule:evenodd" />
          <path
             id="path4691"
             d="m 69.346216,997.6751 0,1.307 c -0.085,-0.103 -0.217,-0.175 -0.367,-0.211 -0.09,-0.021 -0.183,-0.032 -0.279,-0.029 -0.093,0 -0.19,0.018 -0.275,0.047 -0.122,0.04 -0.226,0.108 -0.297,0.197 l 0,-1.308 c 0.071,-0.089 0.175,-0.157 0.297,-0.196 0.085,-0.029 0.182,-0.047 0.275,-0.047 0.096,0 0.189,0.01 0.279,0.029 0.151,0.036 0.282,0.107 0.367,0.211"
             inkscape:connector-curvature="0"
             style="clip-rule:evenodd;fill:#941b1b;fill-rule:evenodd" />
          <path
             id="path4693"
             d="m 70.569216,998.9851 0,1.15 -0.308,0 c -0.021,-0.01 -0.042,-0.013 -0.064,-0.017 -0.088,-0.026 -0.186,-0.032 -0.281,-0.029 -0.093,0 -0.19,0.018 -0.276,0.046 l -0.293,0 0,-1.153 c 0.072,-0.089 0.176,-0.154 0.293,-0.193 0.086,-0.029 0.183,-0.043 0.276,-0.047 0.095,0 0.193,0.01 0.281,0.029 0.146,0.035 0.283,0.112 0.372,0.214"
             inkscape:connector-curvature="0"
             style="clip-rule:evenodd;fill:#941b1b;fill-rule:evenodd" />
          <path
             id="path4695"
             d="m 68.425216,1000.1361 c 0.085,-0.028 0.182,-0.046 0.275,-0.046 0.097,0 0.189,0 0.279,0.028 0.022,0 0.044,0.011 0.064,0.018 l -0.618,0 z"
             inkscape:connector-curvature="0"
             style="clip-rule:evenodd;fill:#941b1b;fill-rule:evenodd" />
          <path
             id="path4697"
             d="m 68.129216,996.43212 0,1.24598 c -0.089,-0.108 -0.222,-0.178 -0.372,-0.214 -0.089,-0.022 -0.186,-0.033 -0.278,-0.029 -0.097,0 -0.19,0.018 -0.276,0.046 -0.121,0.04 -0.224,0.105 -0.293,0.194 l 0,-1.24298 1.219,0 z"
             inkscape:connector-curvature="0"
             style="clip-rule:evenodd;fill:#941b1b;fill-rule:evenodd" />
          <path
             id="path4699"
             d="m 66.910216,997.6751 0,1.307 c -0.09,-0.103 -0.222,-0.175 -0.368,-0.211 -0.09,-0.021 -0.186,-0.032 -0.279,-0.029 -0.096,0 -0.189,0.018 -0.275,0.047 -0.121,0.04 -0.228,0.108 -0.297,0.197 l 0,-1.308 c 0.069,-0.089 0.176,-0.157 0.297,-0.196 0.086,-0.029 0.179,-0.047 0.275,-0.047 0.093,0 0.189,0.01 0.279,0.029 0.146,0.036 0.278,0.107 0.368,0.211"
             inkscape:connector-curvature="0"
             style="clip-rule:evenodd;fill:#941b1b;fill-rule:evenodd" />
          <path
             id="path4701"
             d="m 68.129216,998.9851 0,1.15 -0.307,0 c -0.021,-0.01 -0.043,-0.013 -0.065,-0.017 -0.089,-0.026 -0.186,-0.032 -0.278,-0.029 -0.097,0 -0.19,0.018 -0.276,0.046 l -0.293,0 0,-1.153 c 0.069,-0.089 0.172,-0.154 0.293,-0.193 0.086,-0.029 0.179,-0.043 0.276,-0.047 0.092,0 0.189,0.01 0.278,0.029 0.149,0.035 0.283,0.112 0.372,0.214"
             inkscape:connector-curvature="0"
             style="clip-rule:evenodd;fill:#941b1b;fill-rule:evenodd" />
          <path
             id="path4703"
             d="m 65.988216,1000.1361 c 0.086,-0.028 0.179,-0.046 0.275,-0.046 0.093,0 0.189,0 0.279,0.028 0.021,0 0.042,0.011 0.063,0.018 l -0.617,0 z"
             inkscape:connector-curvature="0"
             style="clip-rule:evenodd;fill:#941b1b;fill-rule:evenodd" />
          <rect
             id="rect4705"
             height="4.9260001"
             width="1.8940001"
             y="1002.9511"
             x="86.619209"
             style="clip-rule:evenodd;fill:#ffffff;fill-rule:evenodd" />
          <rect
             id="rect4707"
             height="4.9260001"
             width="1.89"
             y="1002.9511"
             x="84.30822"
             style="clip-rule:evenodd;fill:#ffffff;fill-rule:evenodd" />
          <polygon
             transform="translate(3.7382156,874.30512)"
             id="polygon4709"
             points="87.474,116.996 86.748,117.843 82.185,113.957 78.098,117.826 77.329,117.015 81.777,112.798 82.145,112.453 82.528,112.782 "
             style="clip-rule:evenodd;fill:#941b1b;fill-rule:evenodd" />
          <polygon
             transform="translate(3.7382156,874.30512)"
             id="polygon4711"
             points="81.009,114.717 80.399,114.106 79.409,115.042 80.023,115.656 80.202,115.835 81.188,114.896 "
             style="clip-rule:evenodd;fill:#941b1b;fill-rule:evenodd" />
          <polygon
             transform="translate(3.7382156,874.30512)"
             id="polygon4713"
             points="79.009,116.618 78.398,116.003 77.329,117.015 78.098,117.826 78.559,117.389 79.188,116.796 "
             style="clip-rule:evenodd;fill:#941b1b;fill-rule:evenodd" />
          <polygon
             transform="translate(3.7382156,874.30512)"
             id="polygon4715"
             points="83.386,114.978 84.426,115.864 84.636,115.653 85.219,115.074 84.179,114.189 83.596,114.767 "
             style="clip-rule:evenodd;fill:#941b1b;fill-rule:evenodd" />
          <polygon
             transform="translate(3.7382156,874.30512)"
             id="polygon4717"
             points="86.283,115.982 85.704,116.564 85.493,116.775 86.265,117.432 86.748,117.843 87.473,116.996 "
             style="clip-rule:evenodd;fill:#941b1b;fill-rule:evenodd" />
          <path
             id="path4719"
             d="m 86.291216,993.05912 c 0.64,0 1.161,-0.521 1.161,-1.158 0,-0.639 -0.521,-1.161 -1.161,-1.161 -0.637,0 -1.158,0.522 -1.158,1.161 0,0.637 0.521,1.158 1.158,1.158"
             inkscape:connector-curvature="0"
             style="clip-rule:evenodd;fill:#ffffff;fill-rule:evenodd" />
          <rect
             id="rect4721"
             height="16.545"
             width="0.493"
             y="994.59009"
             x="129.78723"
             style="clip-rule:evenodd;fill:#941b1b;fill-rule:evenodd" />
          <path
             id="path4723"
             d="m 129.78722,994.83912 c 0,-0.74 -0.307,-1.45 -0.825,-1.968 -0.489,-0.49 -1.169,-0.804 -1.947,-0.804 l 0,-0.494 c 0.918,0 1.718,0.372 2.297,0.951 0.608,0.607 0.968,1.442 0.968,2.315 l -0.493,0 z"
             inkscape:connector-curvature="0"
             style="clip-rule:evenodd;fill:#941b1b;fill-rule:evenodd" />
          <rect
             id="rect4725"
             height="0.62900001"
             width="3.023"
             y="991.60107"
             x="123.99121"
             style="clip-rule:evenodd;fill:#941b1b;fill-rule:evenodd" />
          <path
             id="path4727"
             d="m 123.99122,992.23112 1.697,0 0,0.207 c 0,0.114 -0.093,0.207 -0.207,0.207 l -1.282,0 c -0.115,0 -0.208,-0.093 -0.208,-0.207 l 0,-0.207 z"
             inkscape:connector-curvature="0"
             style="clip-rule:evenodd;fill:#ffffff;fill-rule:evenodd" />
          <path
             id="path4729"
             d="m 128.51522,1012.0861 0.65,0 1.673,0 0.697,0 0,-0.669 -0.697,0 0,-1.9 c 0,-0.461 -0.375,-0.836 -0.836,-0.836 -0.461,0 -0.837,0.375 -0.837,0.836 l 0,1.9 -0.65,0 0,0.669 z"
             inkscape:connector-curvature="0"
             style="clip-rule:evenodd;fill:#941b1b;fill-rule:evenodd" />
          <path
             id="path4731"
             d="m 196.97522,1011.9571 c 6.624,-5.705 17.543,-9.428 29.891,-9.428 12.348,0 23.264,3.723 29.888,9.428 l -59.779,0 z"
             inkscape:connector-curvature="0"
             style="clip-rule:evenodd;fill:#cb8559;fill-rule:evenodd" />
          <path
             id="path4733"
             d="m 202.34322,1011.9571 c 5.433,-5.705 14.391,-9.428 24.522,-9.428 10.129,0 19.086,3.723 24.52,9.428 l -49.042,0 z"
             inkscape:connector-curvature="0"
             style="clip-rule:evenodd;fill:#8b6021;fill-rule:evenodd" />
          <path
             id="path4735"
             d="m 204.15822,1011.9571 c 4.628,-5.705 12.254,-9.428 20.881,-9.428 8.624,0 16.255,3.723 20.883,9.428 l -41.764,0 z"
             inkscape:connector-curvature="0"
             style="clip-rule:evenodd;fill:#cb8559;fill-rule:evenodd" />
          <path
             id="path4737"
             d="m 209.96022,1011.9571 c 3.34,-5.705 8.849,-9.428 15.08,-9.428 6.227,0 11.736,3.723 15.08,9.428 l -30.16,0 z"
             inkscape:connector-curvature="0"
             style="clip-rule:evenodd;fill:#8b6021;fill-rule:evenodd" />
          <path
             id="path4739"
             d="m 214.20922,1011.9571 c 2.305,-5.705 6.105,-9.428 10.401,-9.428 4.296,0 8.095,3.723 10.398,9.428 l -20.799,0 z"
             inkscape:connector-curvature="0"
             style="clip-rule:evenodd;fill:#cb8559;fill-rule:evenodd" />
          <path
             id="path4741"
             d="m 220.13722,1011.9571 c 0.991,-5.705 2.625,-9.428 4.473,-9.428 1.847,0 3.481,3.723 4.472,9.428 l -8.945,0 z"
             inkscape:connector-curvature="0"
             style="clip-rule:evenodd;fill:#8b6021;fill-rule:evenodd" />
          <rect
             id="rect4747"
             height="7.2950001"
             width="14.743"
             y="1004.6541"
             x="188.05421"
             style="clip-rule:evenodd;fill:#f1948a;fill-rule:evenodd" />
          <rect
             id="rect4749"
             height="3.6040001"
             width="1.927"
             y="989.25806"
             x="159.58022"
             style="clip-rule:evenodd;fill:#fdce5d;fill-rule:evenodd" />
          <rect
             id="rect4751"
             height="0.83999997"
             width="2.2720001"
             y="988.71509"
             x="159.40523"
             style="clip-rule:evenodd;fill:#e42323;fill-rule:evenodd" />
          <polygon
             transform="translate(3.7382156,874.30512)"
             id="polygon4753"
             points="154.027,118.861 167.658,118.797 167.658,137.652 154.027,137.652 "
             style="clip-rule:evenodd;fill:#fdce5d;fill-rule:evenodd" />
          <rect
             id="rect4755"
             height="8.1059999"
             width="3.655"
             y="1002.4681"
             x="162.88123"
             style="clip-rule:evenodd;fill:#e42323;fill-rule:evenodd" />
          <rect
             id="rect4757"
             height="0.76800001"
             width="5.8249998"
             y="1010.5451"
             x="161.79622"
             style="clip-rule:evenodd;fill:#941b1b;fill-rule:evenodd" />
          <rect
             id="rect4759"
             height="0.76899999"
             width="7.2610002"
             y="1011.3131"
             x="161.07822"
             style="clip-rule:evenodd;fill:#941b1b;fill-rule:evenodd" />
          <rect
             id="rect4761"
             height="1.296"
             width="15.429"
             y="992.81305"
             x="156.81522"
             style="clip-rule:evenodd;fill:#e42323;fill-rule:evenodd" />
          <polygon
             transform="translate(3.7382156,874.30512)"
             id="polygon4763"
             points="155.209,136.599 154.026,136.651 154.026,137.599 155.157,137.652 "
             style="clip-rule:evenodd;fill:#f6a923;fill-rule:evenodd" />
          <polygon
             transform="translate(3.7382156,874.30512)"
             id="polygon4765"
             points="155.209,134.405 154.026,134.458 154.026,135.405 155.157,135.405 "
             style="clip-rule:evenodd;fill:#f6a923;fill-rule:evenodd" />
          <polygon
             transform="translate(3.7382156,874.30512)"
             id="polygon4767"
             points="154.62,135.512 154.027,135.565 154.027,136.512 154.592,136.512 "
             style="clip-rule:evenodd;fill:#f6a923;fill-rule:evenodd" />
          <polygon
             transform="translate(3.7382156,874.30512)"
             id="polygon4769"
             points="154.62,133.354 154.027,133.408 154.027,134.355 154.592,134.355 "
             style="clip-rule:evenodd;fill:#f6a923;fill-rule:evenodd" />
          <polygon
             transform="translate(3.7382156,874.30512)"
             id="polygon4771"
             points="155.209,132.193 154.026,132.247 154.026,133.193 155.157,133.247 "
             style="clip-rule:evenodd;fill:#f6a923;fill-rule:evenodd" />
          <polygon
             transform="translate(3.7382156,874.30512)"
             id="polygon4773"
             points="155.209,130 154.026,130.055 154.026,131 155.157,131 "
             style="clip-rule:evenodd;fill:#f6a923;fill-rule:evenodd" />
          <polygon
             transform="translate(3.7382156,874.30512)"
             id="polygon4775"
             points="154.62,131.107 154.027,131.161 154.027,132.107 154.592,132.107 "
             style="clip-rule:evenodd;fill:#f6a923;fill-rule:evenodd" />
          <polygon
             transform="translate(3.7382156,874.30512)"
             id="polygon4777"
             points="154.62,128.95 154.027,129.003 154.027,129.95 154.592,129.95 "
             style="clip-rule:evenodd;fill:#f6a923;fill-rule:evenodd" />
          <polygon
             transform="translate(3.7382156,874.30512)"
             id="polygon4779"
             points="155.209,127.846 154.026,127.899 154.026,128.846 155.157,128.899 "
             style="clip-rule:evenodd;fill:#f6a923;fill-rule:evenodd" />
          <polygon
             transform="translate(3.7382156,874.30512)"
             id="polygon4781"
             points="155.209,125.652 154.026,125.706 154.026,126.652 155.157,126.652 "
             style="clip-rule:evenodd;fill:#f6a923;fill-rule:evenodd" />
          <polygon
             transform="translate(3.7382156,874.30512)"
             id="polygon4783"
             points="154.62,126.761 154.027,126.813 154.027,127.761 154.592,127.761 "
             style="clip-rule:evenodd;fill:#f6a923;fill-rule:evenodd" />
          <polygon
             transform="translate(3.7382156,874.30512)"
             id="polygon4785"
             points="154.62,124.603 154.027,124.656 154.027,125.603 154.592,125.603 "
             style="clip-rule:evenodd;fill:#f6a923;fill-rule:evenodd" />
          <polygon
             transform="translate(3.7382156,874.30512)"
             id="polygon4787"
             points="155.209,123.463 154.026,123.516 154.026,124.458 155.157,124.513 "
             style="clip-rule:evenodd;fill:#f6a923;fill-rule:evenodd" />
          <polygon
             transform="translate(3.7382156,874.30512)"
             id="polygon4789"
             points="155.209,121.27 154.026,121.322 154.026,122.266 155.157,122.266 "
             style="clip-rule:evenodd;fill:#f6a923;fill-rule:evenodd" />
          <polygon
             transform="translate(3.7382156,874.30512)"
             id="polygon4791"
             points="154.62,122.373 154.027,122.427 154.027,123.373 154.592,123.373 "
             style="clip-rule:evenodd;fill:#f6a923;fill-rule:evenodd" />
          <polygon
             transform="translate(3.7382156,874.30512)"
             id="polygon4793"
             points="154.62,120.219 154.027,120.272 154.027,121.215 154.592,121.215 "
             style="clip-rule:evenodd;fill:#f6a923;fill-rule:evenodd" />
          <polygon
             transform="translate(3.7382156,874.30512)"
             id="polygon4795"
             points="166.476,136.599 167.658,136.651 167.658,137.599 166.529,137.652 "
             style="clip-rule:evenodd;fill:#f6a923;fill-rule:evenodd" />
          <polygon
             transform="translate(3.7382156,874.30512)"
             id="polygon4797"
             points="166.476,134.405 167.658,134.458 167.658,135.405 166.529,135.405 "
             style="clip-rule:evenodd;fill:#f6a923;fill-rule:evenodd" />
          <polygon
             transform="translate(3.7382156,874.30512)"
             id="polygon4799"
             points="167.065,135.512 167.658,135.565 167.658,136.512 167.094,136.512 "
             style="clip-rule:evenodd;fill:#f6a923;fill-rule:evenodd" />
          <polygon
             transform="translate(3.7382156,874.30512)"
             id="polygon4801"
             points="167.065,133.354 167.658,133.408 167.658,134.355 167.094,134.355 "
             style="clip-rule:evenodd;fill:#f6a923;fill-rule:evenodd" />
          <polygon
             transform="translate(3.7382156,874.30512)"
             id="polygon4803"
             points="166.476,132.193 167.658,132.247 167.658,133.193 166.529,133.247 "
             style="clip-rule:evenodd;fill:#f6a923;fill-rule:evenodd" />
          <polygon
             transform="translate(3.7382156,874.30512)"
             id="polygon4805"
             points="166.476,130 167.658,130.055 167.658,131 166.529,131 "
             style="clip-rule:evenodd;fill:#f6a923;fill-rule:evenodd" />
          <polygon
             transform="translate(3.7382156,874.30512)"
             id="polygon4807"
             points="167.065,131.107 167.658,131.161 167.658,132.107 167.094,132.107 "
             style="clip-rule:evenodd;fill:#f6a923;fill-rule:evenodd" />
          <polygon
             transform="translate(3.7382156,874.30512)"
             id="polygon4809"
             points="167.065,128.95 167.658,129.003 167.658,129.95 167.094,129.95 "
             style="clip-rule:evenodd;fill:#f6a923;fill-rule:evenodd" />
          <polygon
             transform="translate(3.7382156,874.30512)"
             id="polygon4811"
             points="166.476,127.846 167.658,127.899 167.658,128.846 166.529,128.899 "
             style="clip-rule:evenodd;fill:#f6a923;fill-rule:evenodd" />
          <polygon
             transform="translate(3.7382156,874.30512)"
             id="polygon4813"
             points="166.476,125.652 167.658,125.706 167.658,126.652 166.529,126.652 "
             style="clip-rule:evenodd;fill:#f6a923;fill-rule:evenodd" />
          <polygon
             transform="translate(3.7382156,874.30512)"
             id="polygon4815"
             points="167.065,126.761 167.658,126.813 167.658,127.761 167.094,127.761 "
             style="clip-rule:evenodd;fill:#f6a923;fill-rule:evenodd" />
          <polygon
             transform="translate(3.7382156,874.30512)"
             id="polygon4817"
             points="167.065,124.603 167.658,124.656 167.658,125.603 167.094,125.603 "
             style="clip-rule:evenodd;fill:#f6a923;fill-rule:evenodd" />
          <polygon
             transform="translate(3.7382156,874.30512)"
             id="polygon4819"
             points="166.476,123.463 167.658,123.516 167.658,124.458 166.529,124.513 "
             style="clip-rule:evenodd;fill:#f6a923;fill-rule:evenodd" />
          <polygon
             transform="translate(3.7382156,874.30512)"
             id="polygon4821"
             points="166.476,121.27 167.658,121.322 167.658,122.266 166.529,122.266 "
             style="clip-rule:evenodd;fill:#f6a923;fill-rule:evenodd" />
          <polygon
             transform="translate(3.7382156,874.30512)"
             id="polygon4823"
             points="167.065,122.373 167.658,122.427 167.658,123.373 167.094,123.373 "
             style="clip-rule:evenodd;fill:#f6a923;fill-rule:evenodd" />
          <polygon
             transform="translate(3.7382156,874.30512)"
             id="polygon4825"
             points="167.065,120.219 167.658,120.272 167.658,121.215 167.094,121.215 "
             style="clip-rule:evenodd;fill:#f6a923;fill-rule:evenodd" />
          <rect
             id="rect4827"
             height="4.9120002"
             width="1.675"
             y="1002.5081"
             x="160.26723"
             style="clip-rule:evenodd;fill:#ffffff;fill-rule:evenodd" />
          <rect
             id="rect4829"
             height="4.9120002"
             width="1.676"
             y="1002.5081"
             x="167.55922"
             style="clip-rule:evenodd;fill:#ffffff;fill-rule:evenodd" />
          <rect
             id="rect4831"
             height="4.9109998"
             width="1.675"
             y="996.29504"
             x="160.26723"
             style="clip-rule:evenodd;fill:#ffffff;fill-rule:evenodd" />
          <rect
             id="rect4833"
             height="4.9109998"
             width="1.676"
             y="996.29504"
             x="167.55922"
             style="clip-rule:evenodd;fill:#ffffff;fill-rule:evenodd" />
          <polygon
             transform="translate(3.7382156,874.30512)"
             id="polygon4835"
             points="176.032,114.165 172.646,117.55 179.416,117.55 "
             style="clip-rule:evenodd;fill:#ffffff;fill-rule:evenodd" />
          <rect
             id="rect4837"
             height="20.125999"
             width="6.678"
             y="991.82306"
             x="176.43121"
             style="clip-rule:evenodd;fill:#ffffff;fill-rule:evenodd" />
          <rect
             id="rect4839"
             height="14.168"
             width="16.756001"
             y="997.78107"
             x="171.39223"
             style="clip-rule:evenodd;fill:#ffffff;fill-rule:evenodd" />
          <path
             id="path4841"
             d="m 132.59222,987.51912 0.721,0.6 -1.443,0 0.722,-0.6 z m -0.296,0.721 0,0 0.597,0 0,3.487 -0.597,0 0,-3.487 z"
             inkscape:connector-curvature="0"
             style="clip-rule:evenodd;fill:#20244f;fill-rule:evenodd" />
          <rect
             id="rect4843"
             height="21.195"
             width="14.86"
             y="990.76105"
             x="131.09221"
             style="clip-rule:evenodd;fill:#c88b38;fill-rule:evenodd" />
          <path
             id="path4845"
             d="m 143.44422,1009.5721 -1.176,0 0,-3.423 1.176,0 0,3.423 z m 1.133,-3.423 0,0 0,3.423 -0.762,0 0,-3.423 0.762,0 z m -0.962,-2.854 0,0 0.962,0 0,2.412 -0.962,0 0,-2.412 z m -1.347,0 0,0 0.976,0 0,2.412 -0.976,0 0,-2.412 z"
             inkscape:connector-curvature="0"
             style="clip-rule:evenodd;fill:#ffffff;fill-rule:evenodd" />
          <rect
             id="rect4847"
             height="8.941"
             width="3.8340001"
             y="1003.0651"
             x="136.84422"
             style="clip-rule:evenodd;fill:#20244f;fill-rule:evenodd" />
          <polygon
             transform="translate(3.7382156,874.30512)"
             id="polygon4849"
             points="133.313,124.191 136.654,124.191 141.721,128.324 128.321,128.324 "
             style="clip-rule:evenodd;fill:#5f6890;fill-rule:evenodd" />
          <path
             id="path4851"
             d="m 143.79022,1001.2681 0,0.134 c -0.118,-0.122 -0.3,-0.201 -0.504,-0.244 -0.121,-0.025 -0.253,-0.036 -0.383,-0.036 -0.131,0 -0.26,0.021 -0.378,0.058 -0.168,0.046 -0.31,0.121 -0.407,0.225 l 0,-1.5 1.672,1.363 z"
             inkscape:connector-curvature="0"
             style="clip-rule:evenodd;fill:#20244f;fill-rule:evenodd" />
          <path
             id="path4853"
             d="m 143.79022,1002.6301 0,-1.228 c 0.023,-0.025 0.049,-0.049 0.077,-0.07 l 1.591,1.298 -1.668,0 z"
             inkscape:connector-curvature="0"
             style="clip-rule:evenodd;fill:#20244f;fill-rule:evenodd" />
          <path
             id="path4855"
             d="m 141.98822,999.7991 c -0.107,-0.067 -0.238,-0.116 -0.381,-0.145 -0.122,-0.025 -0.254,-0.04 -0.383,-0.036 -0.132,0 -0.26,0.021 -0.379,0.054 -0.164,0.045 -0.307,0.121 -0.4,0.22 l 0,-1.351 1.543,1.258 z"
             inkscape:connector-curvature="0"
             style="clip-rule:evenodd;fill:#20244f;fill-rule:evenodd" />
          <path
             id="path4857"
             d="m 140.44622,999.8921 0,1.509 c -0.121,-0.122 -0.304,-0.201 -0.504,-0.243 -0.124,-0.026 -0.257,-0.037 -0.385,-0.037 -0.133,0 -0.261,0.022 -0.379,0.058 -0.165,0.046 -0.311,0.121 -0.408,0.225 l 0,-1.504 c 0.097,-0.104 0.243,-0.178 0.408,-0.229 0.118,-0.032 0.246,-0.05 0.379,-0.053 0.128,0 0.261,0.01 0.385,0.036 0.199,0.043 0.382,0.121 0.504,0.238"
             inkscape:connector-curvature="0"
             style="clip-rule:evenodd;fill:#20244f;fill-rule:evenodd" />
          <path
             id="path4859"
             d="m 142.11822,1001.4041 0,1.225 -1.672,0 0,-1.228 c 0.093,-0.104 0.236,-0.18 0.4,-0.222 0.118,-0.036 0.247,-0.054 0.379,-0.058 0.128,0 0.261,0.011 0.382,0.036 0.207,0.044 0.39,0.126 0.511,0.247"
             inkscape:connector-curvature="0"
             style="clip-rule:evenodd;fill:#20244f;fill-rule:evenodd" />
          <path
             id="path4861"
             d="m 138.77022,998.4961 0,1.404 c -0.121,-0.121 -0.303,-0.203 -0.507,-0.246 -0.125,-0.026 -0.257,-0.04 -0.386,-0.036 -0.128,0 -0.261,0.021 -0.375,0.053 -0.168,0.046 -0.308,0.122 -0.404,0.221 l 0,-1.396 1.672,0 z"
             inkscape:connector-curvature="0"
             style="clip-rule:evenodd;fill:#20244f;fill-rule:evenodd" />
          <path
             id="path4863"
             d="m 137.09722,999.8921 0,1.509 c -0.121,-0.122 -0.303,-0.201 -0.503,-0.243 -0.125,-0.026 -0.258,-0.037 -0.386,-0.037 -0.129,0 -0.258,0.022 -0.376,0.058 -0.168,0.046 -0.314,0.121 -0.411,0.225 l 0,-1.504 c 0.097,-0.104 0.243,-0.178 0.411,-0.229 0.118,-0.032 0.247,-0.05 0.376,-0.053 0.128,0 0.261,0.01 0.386,0.036 0.2,0.043 0.382,0.121 0.503,0.238"
             inkscape:connector-curvature="0"
             style="clip-rule:evenodd;fill:#20244f;fill-rule:evenodd" />
          <path
             id="path4865"
             d="m 138.77022,1001.4041 0,1.225 -1.672,0 0,-1.228 c 0.096,-0.104 0.236,-0.18 0.404,-0.222 0.114,-0.036 0.247,-0.054 0.375,-0.058 0.129,0 0.261,0.011 0.386,0.036 0.204,0.044 0.386,0.126 0.507,0.247"
             inkscape:connector-curvature="0"
             style="clip-rule:evenodd;fill:#20244f;fill-rule:evenodd" />
          <path
             id="path4867"
             d="m 135.42222,999.8451 0,0.055 c -0.009,-0.01 -0.02,-0.019 -0.03,-0.03 l 0.03,-0.025 z"
             inkscape:connector-curvature="0"
             style="clip-rule:evenodd;fill:#20244f;fill-rule:evenodd" />
          <path
             id="path4869"
             d="m 133.75022,1001.2311 0,0.171 c -0.031,-0.032 -0.066,-0.06 -0.104,-0.085 l 0.104,-0.086 z"
             inkscape:connector-curvature="0"
             style="clip-rule:evenodd;fill:#20244f;fill-rule:evenodd" />
          <path
             id="path4871"
             d="m 135.42222,1001.4041 0,1.225 -1.671,0 0,-1.228 c 0.096,-0.104 0.238,-0.18 0.403,-0.222 0.118,-0.036 0.247,-0.054 0.375,-0.058 0.132,0 0.261,0.011 0.386,0.036 0.202,0.044 0.388,0.126 0.507,0.247"
             inkscape:connector-curvature="0"
             style="clip-rule:evenodd;fill:#20244f;fill-rule:evenodd" />
          <path
             id="path4873"
             d="m 134.19322,1003.2951 -1.172,0 0,3.424 1.172,0 0,-3.424 z m 1.133,3.423 0,0 0,-3.423 -0.757,0 0,3.423 0.757,0 z m -0.958,2.854 0,0 0.958,0 0,-2.413 -0.958,0 0,2.413 z m -1.347,0 0,0 0.972,0 0,-2.413 -0.972,0 0,2.413 z"
             inkscape:connector-curvature="0"
             style="clip-rule:evenodd;fill:#ffffff;fill-rule:evenodd" />
          <polygon
             transform="translate(3.7382156,874.30512)"
             id="polygon4875"
             points="141.178,136.426 141.227,137.667 142.114,137.667 142.114,136.48 "
             style="clip-rule:evenodd;fill:#e6c9b7;fill-rule:evenodd" />
          <polygon
             transform="translate(3.7382156,874.30512)"
             id="polygon4877"
             points="140.195,137.044 140.245,137.667 141.132,137.667 141.132,137.073 "
             style="clip-rule:evenodd;fill:#e6c9b7;fill-rule:evenodd" />
          <polygon
             transform="translate(3.7382156,874.30512)"
             id="polygon4879"
             points="139.109,136.426 139.159,137.667 140.042,137.667 140.092,136.48 "
             style="clip-rule:evenodd;fill:#e6c9b7;fill-rule:evenodd" />
          <polygon
             transform="translate(3.7382156,874.30512)"
             id="polygon4881"
             points="137.054,136.426 137.104,137.667 137.991,137.667 137.991,136.48 "
             style="clip-rule:evenodd;fill:#e6c9b7;fill-rule:evenodd" />
          <polygon
             transform="translate(3.7382156,874.30512)"
             id="polygon4883"
             points="138.091,137.044 138.141,137.667 139.028,137.667 139.028,137.073 "
             style="clip-rule:evenodd;fill:#e6c9b7;fill-rule:evenodd" />
          <polygon
             transform="translate(3.7382156,874.30512)"
             id="polygon4885"
             points="132.002,137.044 132.051,137.667 132.935,137.667 132.935,137.073 "
             style="clip-rule:evenodd;fill:#e6c9b7;fill-rule:evenodd" />
          <polygon
             transform="translate(3.7382156,874.30512)"
             id="polygon4887"
             points="130.93,136.426 130.98,137.667 131.866,137.667 131.916,136.48 "
             style="clip-rule:evenodd;fill:#e6c9b7;fill-rule:evenodd" />
          <polygon
             transform="translate(3.7382156,874.30512)"
             id="polygon4889"
             points="128.879,136.426 128.929,137.667 129.816,137.667 129.816,136.48 "
             style="clip-rule:evenodd;fill:#e6c9b7;fill-rule:evenodd" />
          <polygon
             transform="translate(3.7382156,874.30512)"
             id="polygon4891"
             points="129.915,137.044 129.965,137.667 130.848,137.667 130.848,137.073 "
             style="clip-rule:evenodd;fill:#e6c9b7;fill-rule:evenodd" />
          <polygon
             transform="translate(3.7382156,874.30512)"
             id="polygon4893"
             points="127.896,137.044 127.946,137.667 128.83,137.667 128.83,137.073 "
             style="clip-rule:evenodd;fill:#e6c9b7;fill-rule:evenodd" />
          <path
             id="path4895"
             d="m 135.48722,994.91312 -0.004,-0.371 c -0.014,-1.162 -0.507,-2.115 -1.107,-2.194 l 0.032,2.565 1.079,0 z m -1.041,2.86098 0,0 1.079,0 -0.035,-2.56798 -1.08,0 0.036,2.56798 z m -1.268,-2.56798 0,0 0.032,2.56798 1.079,0 -0.032,-2.56798 -1.079,0 z m 1.043,-2.858 0,0 c -0.601,0.079 -1.065,1.032 -1.05,2.194 l 0.003,0.371 1.079,0 -0.032,-2.565 z"
             inkscape:connector-curvature="0"
             style="clip-rule:evenodd;fill:#ffffff;fill-rule:evenodd" />
          <path
             id="path4897"
             d="m 144.68422,994.91312 -0.004,-0.371 c -0.014,-1.162 -0.508,-2.115 -1.108,-2.194 l 0.032,2.565 1.08,0 z m -1.044,2.86098 0,0 1.079,0 -0.032,-2.56798 -1.08,0 0.033,2.56798 z m -1.264,-2.56798 0,0 0.032,2.56798 1.078,0 -0.032,-2.56798 -1.078,0 z m 1.043,-2.858 0,0 c -0.601,0.079 -1.069,1.032 -1.051,2.194 l 0.004,0.371 1.079,0 -0.032,-2.565 z"
             inkscape:connector-curvature="0"
             style="clip-rule:evenodd;fill:#ffffff;fill-rule:evenodd" />
          <polygon
             transform="translate(3.7382156,874.30512)"
             id="polygon4899"
             points="128.508,117.697 128.458,116.457 127.575,116.457 127.575,117.643 "
             style="clip-rule:evenodd;fill:#e6c9b7;fill-rule:evenodd" />
          <polygon
             transform="translate(3.7382156,874.30512)"
             id="polygon4901"
             points="129.494,117.075 129.44,116.457 128.558,116.457 128.558,117.05 "
             style="clip-rule:evenodd;fill:#e6c9b7;fill-rule:evenodd" />
          <polygon
             transform="translate(3.7382156,874.30512)"
             id="polygon4903"
             points="130.58,117.697 130.53,116.457 129.644,116.457 129.594,117.643 "
             style="clip-rule:evenodd;fill:#e6c9b7;fill-rule:evenodd" />
          <polygon
             transform="translate(3.7382156,874.30512)"
             id="polygon4905"
             points="132.631,117.697 132.581,116.457 131.698,116.457 131.698,117.643 "
             style="clip-rule:evenodd;fill:#e6c9b7;fill-rule:evenodd" />
          <polygon
             transform="translate(3.7382156,874.30512)"
             id="polygon4907"
             points="131.598,117.075 131.544,116.457 130.662,116.457 130.662,117.05 "
             style="clip-rule:evenodd;fill:#e6c9b7;fill-rule:evenodd" />
          <polygon
             transform="translate(3.7382156,874.30512)"
             id="polygon4909"
             points="137.901,117.075 137.852,116.457 136.965,116.457 136.965,117.05 "
             style="clip-rule:evenodd;fill:#e6c9b7;fill-rule:evenodd" />
          <polygon
             transform="translate(3.7382156,874.30512)"
             id="polygon4911"
             points="138.97,117.697 138.92,116.457 138.034,116.457 137.984,117.643 "
             style="clip-rule:evenodd;fill:#e6c9b7;fill-rule:evenodd" />
          <polygon
             transform="translate(3.7382156,874.30512)"
             id="polygon4913"
             points="141.024,117.697 140.975,116.457 140.088,116.457 140.088,117.643 "
             style="clip-rule:evenodd;fill:#e6c9b7;fill-rule:evenodd" />
          <polygon
             transform="translate(3.7382156,874.30512)"
             id="polygon4915"
             points="139.988,117.075 139.938,116.457 139.051,116.457 139.051,117.05 "
             style="clip-rule:evenodd;fill:#e6c9b7;fill-rule:evenodd" />
          <polygon
             transform="translate(3.7382156,874.30512)"
             id="polygon4917"
             points="142.007,117.075 141.958,116.457 141.07,116.457 141.07,117.05 "
             style="clip-rule:evenodd;fill:#e6c9b7;fill-rule:evenodd" />
          <polygon
             transform="translate(3.7382156,874.30512)"
             id="polygon4919"
             points="133.728,117.075 133.678,116.457 132.792,116.457 132.792,117.05 "
             style="clip-rule:evenodd;fill:#e6c9b7;fill-rule:evenodd" />
          <polygon
             transform="translate(3.7382156,874.30512)"
             id="polygon4921"
             points="134.814,117.697 134.765,116.457 133.877,116.457 133.829,117.643 "
             style="clip-rule:evenodd;fill:#e6c9b7;fill-rule:evenodd" />
          <polygon
             transform="translate(3.7382156,874.30512)"
             id="polygon4923"
             points="136.869,117.697 136.819,116.457 135.933,116.457 135.933,117.643 "
             style="clip-rule:evenodd;fill:#e6c9b7;fill-rule:evenodd" />
          <polygon
             transform="translate(3.7382156,874.30512)"
             id="polygon4925"
             points="135.833,117.075 135.783,116.457 134.896,116.457 134.896,117.05 "
             style="clip-rule:evenodd;fill:#e6c9b7;fill-rule:evenodd" />
          <rect
             id="rect4927"
             height="0.89899999"
             width="16.569"
             y="989.86206"
             x="130.23822"
             style="clip-rule:evenodd;fill:#20244f;fill-rule:evenodd" />
          <path
             id="path4929"
             d="m 119.78622,1000.7431 5.681,0 c 1.122,0 2.04,0.916 2.04,2.037 l 0,7.938 -9.804,0 0,-7.895 c 0,-1.143 0.936,-2.08 2.083,-2.08"
             inkscape:connector-curvature="0"
             style="clip-rule:evenodd;fill:#e42323;fill-rule:evenodd" />
          <rect
             id="rect4931"
             height="3.5929999"
             width="9.8050003"
             y="1002.8221"
             x="117.7032"
             style="clip-rule:evenodd;fill:#ffffff;fill-rule:evenodd" />
          <path
             id="path4933"
             d="m 118.90722,1009.7001 c 0.292,0 0.529,-0.24 0.529,-0.532 0,-0.293 -0.237,-0.533 -0.529,-0.533 -0.293,0 -0.532,0.24 -0.532,0.533 0,0.291 0.239,0.532 0.532,0.532"
             inkscape:connector-curvature="0"
             style="clip-rule:evenodd;fill:#ffffff;fill-rule:evenodd" />
          <path
             id="path4935"
             d="m 126.40022,1009.7001 c 0.293,0 0.532,-0.24 0.532,-0.532 0,-0.293 -0.239,-0.533 -0.532,-0.533 -0.293,0 -0.533,0.24 -0.533,0.533 0,0.291 0.24,0.532 0.533,0.532"
             inkscape:connector-curvature="0"
             style="clip-rule:evenodd;fill:#ffffff;fill-rule:evenodd" />
          <rect
             id="rect4937"
             height="0.778"
             width="5.2280002"
             y="1002.0441"
             x="120.0222"
             style="clip-rule:evenodd;fill:#941b1b;fill-rule:evenodd" />
          <path
             id="path4939"
             d="m 118.57122,1010.7181 1.215,0 0,1.049 c 0,0.105 -0.086,0.19 -0.19,0.19 l -0.839,0 c -0.104,0 -0.186,-0.085 -0.186,-0.19 l 0,-1.049 z"
             inkscape:connector-curvature="0"
             style="clip-rule:evenodd;fill:#941b1b;fill-rule:evenodd" />
          <path
             id="path4941"
             d="m 117.70622,1006.8661 2.065,0 c 0.718,0 1.266,0.489 1.655,1.161 0.479,0.829 0.718,1.962 0.718,2.691 l -0.697,0 c 0,-0.64 -0.207,-1.626 -0.622,-2.345 -0.271,-0.471 -0.628,-0.814 -1.054,-0.814 l -2.065,0 0,-0.693 z"
             inkscape:connector-curvature="0"
             style="clip-rule:evenodd;fill:#fdce5d;fill-rule:evenodd" />
          <path
             id="path4943"
             d="m 127.51122,1006.8661 -2.065,0 c -0.718,0 -1.265,0.489 -1.651,1.161 -0.479,0.829 -0.718,1.962 -0.718,2.691 l 0.693,0 c 0,-0.64 0.207,-1.626 0.622,-2.345 l 0.004,0 c 0.271,-0.471 0.625,-0.814 1.05,-0.814 l 2.065,0 0,-0.693 z"
             inkscape:connector-curvature="0"
             style="clip-rule:evenodd;fill:#fdce5d;fill-rule:evenodd" />
          <path
             id="path4945"
             d="m 125.49922,1010.7181 1.215,0 0,1.049 c 0,0.105 -0.086,0.19 -0.19,0.19 l -0.836,0 c -0.103,0 -0.189,-0.085 -0.189,-0.19 l 0,-1.049 z"
             inkscape:connector-curvature="0"
             style="clip-rule:evenodd;fill:#941b1b;fill-rule:evenodd" />
          <rect
             id="rect4947"
             height="13.357"
             width="18.176001"
             y="998.5921"
             x="90.004219"
             style="clip-rule:evenodd;fill:#ef887a;fill-rule:evenodd" />
          <rect
             id="rect4949"
             height="8.6630001"
             width="3.4549999"
             y="1003.2861"
             x="101.96021"
             style="clip-rule:evenodd;fill:#941b1b;fill-rule:evenodd" />
          <rect
             id="rect4951"
             height="4.9260001"
             width="6.4819999"
             y="1004.0301"
             x="93.316216"
             style="clip-rule:evenodd;fill:#ffffff;fill-rule:evenodd" />
          <path
             id="path4953"
             d="m 93.212216,1000.1861 11.856004,0 c 1.168,0 2.122,0.957 2.122,2.126 l 0,2.121 -16.100004,0 0,-2.121 c 0,-1.169 0.954,-2.126 2.122,-2.126"
             inkscape:connector-curvature="0"
             style="clip-rule:evenodd;fill:#e42323;fill-rule:evenodd" />
          <path
             id="path4955"
             d="m 93.212216,1000.1861 1.723,0 0,4.247 -2.027,0 0,-4.226 c 0.1,-0.013 0.201,-0.021 0.304,-0.021"
             inkscape:connector-curvature="0"
             style="clip-rule:evenodd;fill:#fdce5d;fill-rule:evenodd" />
          <rect
             id="rect4957"
             height="4.2470002"
             width="2.026"
             y="1000.1861"
             x="97.018211"
             style="clip-rule:evenodd;fill:#fdce5d;fill-rule:evenodd" />
          <rect
             id="rect4959"
             height="4.2470002"
             width="2.0220001"
             y="1000.1861"
             x="101.13122"
             style="clip-rule:evenodd;fill:#fdce5d;fill-rule:evenodd" />
          <path
             id="path4961"
             d="m 107.19022,1004.4331 -1.95,0 0,-4.241 c 1.088,0.089 1.95,1.009 1.95,2.12 l 0,2.121 z"
             inkscape:connector-curvature="0"
             style="clip-rule:evenodd;fill:#fdce5d;fill-rule:evenodd" />
          <rect
             id="rect4963"
             height="5.2069998"
             width="8.3959999"
             y="1006.7431"
             x="58.306221"
             style="clip-rule:evenodd;fill:#fdce5d;fill-rule:evenodd" />
          <path
             id="path4965"
             d="m 96.908216,967.29312 c 0.013,-0.088 0.021,-0.179 0.021,-0.271 0,-1.061 -0.859,-1.921 -1.92,-1.921 -0.647,0 -1.217,0.32 -1.565,0.809 -0.088,-1.611 -1.422,-2.89 -3.055,-2.89 -1.023,0 -1.927,0.501 -2.483,1.272 -0.587,-2.372 -2.728,-4.131 -5.281,-4.131 -2.965,0 -5.374,2.372 -5.437,5.322 -0.321,-0.239 -0.716,-0.382 -1.147,-0.382 -1.061,0 -1.921,0.86 -1.921,1.921 0,0.092 0.009,0.183 0.022,0.271 l 22.766,0 z"
             inkscape:connector-curvature="0"
             style="clip-rule:evenodd;fill:#ffffff;fill-rule:evenodd" />
          <path
             id="path4967"
             d="m 69.962216,959.09912 c 0.007,-0.052 0.012,-0.105 0.012,-0.158 0,-0.62 -0.503,-1.123 -1.122,-1.123 -0.378,0 -0.711,0.188 -0.915,0.473 -0.051,-0.942 -0.83,-1.69 -1.785,-1.69 -0.597,0 -1.126,0.294 -1.451,0.744 -0.343,-1.386 -1.593,-2.413 -3.085,-2.413 -1.733,0 -3.141,1.385 -3.177,3.109 -0.187,-0.14 -0.419,-0.223 -0.671,-0.223 -0.619,0 -1.122,0.503 -1.122,1.123 0,0.053 0.005,0.106 0.013,0.158 l 13.303,0 z"
             inkscape:connector-curvature="0"
             style="clip-rule:evenodd;fill:#ffffff;fill-rule:evenodd" />
          <path
             id="path4969"
             d="m 194.10122,965.95512 c -0.013,-0.094 -0.022,-0.19 -0.022,-0.289 0,-1.126 0.913,-2.039 2.04,-2.039 0.686,0 1.292,0.34 1.662,0.861 0.092,-1.712 1.509,-3.072 3.245,-3.072 1.085,0 2.046,0.533 2.636,1.351 0.623,-2.518 2.897,-4.386 5.608,-4.386 3.149,0 5.707,2.519 5.775,5.652 0.34,-0.253 0.76,-0.406 1.217,-0.406 1.127,0 2.04,0.913 2.04,2.039 0,0.099 -0.01,0.195 -0.022,0.289 l -24.179,0 z"
             inkscape:connector-curvature="0"
             style="clip-rule:evenodd;fill:#ffffff;fill-rule:evenodd" />
          <path
             id="path4971"
             d="m 161.31922,965.87612 c 0.01,-0.068 0.016,-0.138 0.016,-0.208 0,-0.817 -0.662,-1.479 -1.479,-1.479 -0.497,0 -0.935,0.246 -1.204,0.624 -0.067,-1.241 -1.094,-2.226 -2.352,-2.226 -0.787,0 -1.483,0.386 -1.911,0.979 -0.451,-1.826 -2.099,-3.179 -4.065,-3.179 -2.282,0 -4.137,1.826 -4.186,4.096 -0.246,-0.184 -0.551,-0.294 -0.882,-0.294 -0.817,0 -1.479,0.662 -1.479,1.479 0,0.07 0.007,0.14 0.017,0.208 l 17.525,0 z"
             inkscape:connector-curvature="0"
             style="clip-rule:evenodd;fill:#ffffff;fill-rule:evenodd" />
          <path
             id="path4983"
             d="m 29.536216,990.72212 0.014,-0.038 -0.017,0 -0.019,-0.233 0,-6.298 -0.001,0 c -0.012,-0.568 -1.433,-1.033 -3.176,-1.033 -1.744,0 -3.167,0.465 -3.18,1.033 l 0,6.343 -0.943,11.53598 -3.374,0 0,10e-4 c -0.561,0 -1.009,0.455 -1.011,1.011 l 0,1.086 0.715,0 0,-1.086 c 0,-0.159 0.136,-0.297 0.296,-0.297 l 3.315,0 -0.753,9.21 0.054,0 0.311,0 0.053,0 4.525,-12.453 4.512,12.453 0.05,0 0.315,0 0.05,0 -1.736,-21.23498 z m -7.679,20.13198 0,0 1.581,-19.37498 2.727,7.52498 -4.308,11.85 z m 1.686,-20.08098 0,0 5.613,0 -2.811,7.73198 -2.802,-7.73198 z m 2.984,8.23098 0,0 2.714,-7.47098 1.575,19.30398 -4.289,-11.833 z"
             inkscape:connector-curvature="0"
             style="clip-rule:evenodd;fill:#20244f;fill-rule:evenodd" />
          <path
             id="path4985"
             d="m 18.823216,1005.4271 -0.3,-0.519 -0.3,-0.521 -0.301,0.521 -0.246,0.429 c -0.015,0.022 -0.029,0.047 -0.04,0.069 l -0.01,0.021 c -0.035,0.082 -0.057,0.175 -0.057,0.271 0,0.361 0.293,0.654 0.654,0.654 0.361,0 0.654,-0.293 0.654,-0.654 0,-0.096 -0.022,-0.189 -0.061,-0.271 l 0.007,0 z"
             inkscape:connector-curvature="0"
             style="clip-rule:evenodd;fill:#ffffff;fill-rule:evenodd" />
          <path
             id="path4987"
             d="m 9.8512156,1007.8231 c 0.041,-0.24 1.5370004,0.037 1.3150004,0.7 -0.222,0.664 -1.3870004,-0.28 -1.3150004,-0.7"
             inkscape:connector-curvature="0"
             style="clip-rule:evenodd;fill:#57a633;fill-rule:evenodd" />
          <path
             id="path4989"
             d="m 12.426216,1009.4501 c -0.041,-0.24 -1.536,0.036 -1.315,0.699 0.222,0.664 1.388,-0.28 1.315,-0.699"
             inkscape:connector-curvature="0"
             style="clip-rule:evenodd;fill:#57a633;fill-rule:evenodd" />
          <rect
             id="rect4991"
             height="6.5700002"
             width="0.257"
             y="1005.4551"
             x="11.02221"
             style="clip-rule:evenodd;fill:#57a633;fill-rule:evenodd" />
          <path
             id="path4993"
             d="m 10.894216,1003.5021 c 0.311,0.311 0.311,0.815 0,1.126 -0.311,0.311 -0.814,0.311 -1.1250004,0 -0.311,-0.311 -0.311,-0.815 0,-1.126 0.3110004,-0.31 0.8140004,-0.31 1.1250004,0"
             inkscape:connector-curvature="0"
             style="clip-rule:evenodd;fill:#e42323;fill-rule:evenodd" />
          <path
             id="path4995"
             d="m 12.532216,1005.1411 c 0.311,0.311 0.311,0.814 0,1.125 -0.311,0.311 -0.814,0.311 -1.125,0 -0.311,-0.311 -0.311,-0.814 0,-1.125 0.311,-0.311 0.814,-0.311 1.125,0"
             inkscape:connector-curvature="0"
             style="clip-rule:evenodd;fill:#e42323;fill-rule:evenodd" />
          <path
             id="path4997"
             d="m 9.7682156,1005.1411 c 0.3120004,-0.311 0.8150004,-0.311 1.1250004,0 0.312,0.311 0.312,0.814 0,1.125 -0.31,0.311 -0.813,0.311 -1.1250004,0 -0.311,-0.311 -0.311,-0.814 0,-1.125"
             inkscape:connector-curvature="0"
             style="clip-rule:evenodd;fill:#e42323;fill-rule:evenodd" />
          <path
             id="path4999"
             d="m 11.407216,1003.5021 c 0.311,-0.31 0.814,-0.31 1.125,0 0.312,0.311 0.312,0.815 0,1.126 -0.311,0.311 -0.814,0.311 -1.125,0 -0.311,-0.311 -0.311,-0.815 0,-1.126"
             inkscape:connector-curvature="0"
             style="clip-rule:evenodd;fill:#e42323;fill-rule:evenodd" />
          <path
             id="path5001"
             d="m 11.202216,1004.0891 c 0.44,0 0.796,0.355 0.796,0.794 0,0.44 -0.356,0.796 -0.796,0.796 -0.439,0 -0.796,-0.356 -0.796,-0.796 0,-0.439 0.357,-0.794 0.796,-0.794"
             inkscape:connector-curvature="0"
             style="clip-rule:evenodd;fill:#ffffff;fill-rule:evenodd" />
          <path
             id="path5003"
             d="m 5.7352156,1010.4831 c 0.04,-0.239 1.536,0.037 1.314,0.701 -0.221,0.664 -1.387,-0.279 -1.314,-0.701"
             inkscape:connector-curvature="0"
             style="clip-rule:evenodd;fill:#57a633;fill-rule:evenodd" />
          <rect
             id="rect5005"
             height="4.29"
             width="0.25799999"
             y="1007.7351"
             x="6.9042139"
             style="clip-rule:evenodd;fill:#57a633;fill-rule:evenodd" />
          <path
             id="path5007"
             d="m 6.7772156,1005.7831 c 0.311,0.311 0.311,0.814 0,1.125 -0.311,0.311 -0.814,0.311 -1.125,0 -0.311,-0.311 -0.311,-0.814 0,-1.125 0.311,-0.311 0.814,-0.311 1.125,0"
             inkscape:connector-curvature="0"
             style="clip-rule:evenodd;fill:#e42323;fill-rule:evenodd" />
          <path
             id="path5009"
             d="m 8.4162156,1007.4221 c 0.311,0.312 0.311,0.815 0,1.125 -0.311,0.312 -0.814,0.312 -1.125,0 -0.311,-0.31 -0.311,-0.813 0,-1.125 0.311,-0.311 0.814,-0.311 1.125,0"
             inkscape:connector-curvature="0"
             style="clip-rule:evenodd;fill:#e42323;fill-rule:evenodd" />
          <path
             id="path5011"
             d="m 5.6522156,1007.4231 c 0.311,-0.312 0.814,-0.312 1.125,-10e-4 0.311,0.312 0.311,0.815 0,1.125 -0.311,0.312 -0.814,0.312 -1.125,0 -0.311,-0.31 -0.311,-0.813 0,-1.124"
             inkscape:connector-curvature="0"
             style="clip-rule:evenodd;fill:#e42323;fill-rule:evenodd" />
          <path
             id="path5013"
             d="m 7.2912156,1005.7831 c 0.311,-0.312 0.814,-0.312 1.125,0 0.311,0.311 0.311,0.814 0,1.125 -0.311,0.311 -0.814,0.311 -1.125,0 -0.311,-0.311 -0.311,-0.814 0,-1.125"
             inkscape:connector-curvature="0"
             style="clip-rule:evenodd;fill:#e42323;fill-rule:evenodd" />
          <path
             id="path5015"
             d="m 7.0862156,1006.3691 c 0.439,0 0.796,0.356 0.796,0.796 0,0.439 -0.357,0.795 -0.796,0.795 -0.439,0 -0.795,-0.356 -0.795,-0.795 0,-0.44 0.356,-0.796 0.795,-0.796"
             inkscape:connector-curvature="0"
             style="clip-rule:evenodd;fill:#ffffff;fill-rule:evenodd" />
          <path
             id="path5017"
             d="m 13.967216,1010.4831 c 0.042,-0.239 1.537,0.037 1.315,0.701 -0.22,0.664 -1.386,-0.279 -1.315,-0.701"
             inkscape:connector-curvature="0"
             style="clip-rule:evenodd;fill:#57a633;fill-rule:evenodd" />
          <rect
             id="rect5019"
             height="4.29"
             width="0.25799999"
             y="1007.7351"
             x="15.138223"
             style="clip-rule:evenodd;fill:#57a633;fill-rule:evenodd" />
          <path
             id="path5021"
             d="m 15.010216,1005.7831 c 0.311,0.311 0.311,0.814 0,1.125 -0.311,0.311 -0.814,0.311 -1.125,0 -0.311,-0.311 -0.311,-0.814 0,-1.125 0.311,-0.311 0.814,-0.311 1.125,0"
             inkscape:connector-curvature="0"
             style="clip-rule:evenodd;fill:#e42323;fill-rule:evenodd" />
          <path
             id="path5023"
             d="m 16.650216,1007.4221 c 0.311,0.312 0.311,0.815 0,1.125 -0.311,0.312 -0.814,0.312 -1.125,0 -0.311,-0.31 -0.311,-0.813 0,-1.125 0.311,-0.311 0.814,-0.311 1.125,0"
             inkscape:connector-curvature="0"
             style="clip-rule:evenodd;fill:#e42323;fill-rule:evenodd" />
          <path
             id="path5025"
             d="m 13.885216,1007.4231 c 0.311,-0.312 0.814,-0.312 1.125,-10e-4 0.311,0.312 0.311,0.815 0,1.125 -0.311,0.312 -0.814,0.312 -1.125,0 -0.311,-0.31 -0.311,-0.813 0,-1.124"
             inkscape:connector-curvature="0"
             style="clip-rule:evenodd;fill:#e42323;fill-rule:evenodd" />
          <path
             id="path5027"
             d="m 15.525216,1005.7831 c 0.311,-0.312 0.814,-0.312 1.125,0 0.311,0.311 0.311,0.814 0,1.125 -0.311,0.311 -0.814,0.311 -1.125,0 -0.311,-0.311 -0.311,-0.814 0,-1.125"
             inkscape:connector-curvature="0"
             style="clip-rule:evenodd;fill:#e42323;fill-rule:evenodd" />
          <path
             id="path5029"
             d="m 15.320216,1006.3691 c 0.439,0 0.796,0.356 0.796,0.796 0,0.439 -0.357,0.795 -0.796,0.795 -0.439,0 -0.795,-0.356 -0.795,-0.795 0,-0.44 0.356,-0.796 0.795,-0.796"
             inkscape:connector-curvature="0"
             style="clip-rule:evenodd;fill:#ffffff;fill-rule:evenodd" />
          <polygon
             transform="translate(3.7382156,874.30512)"
             id="polygon5031"
             points="34.412,121.976 40.244,119.84 40.262,121.973 45.764,119.84 45.821,137.669 28.045,137.669 28.045,121.976 34.412,119.84 "
             style="clip-rule:evenodd;fill:#e42323;fill-rule:evenodd" />
          <rect
             id="rect5033"
             height="7.013"
             width="6.428"
             y="1004.9371"
             x="33.943214"
             style="clip-rule:evenodd;fill:#ffffff;fill-rule:evenodd" />
          <polygon
             transform="translate(3.7382156,874.30512)"
             id="polygon5035"
             points="28.559,112.357 30.163,112.357 30.413,122.107 28.059,122.107 "
             style="clip-rule:evenodd;fill:#e42323;fill-rule:evenodd" />
          <rect
             id="rect5037"
             height="4.2620001"
             width="8.8009996"
             y="996.24609"
             x="49.506218"
             style="clip-rule:evenodd;fill:#c78f95;fill-rule:evenodd" />
          <path
             id="path5039"
             d="m 50.735216,997.2931 0,-1.04598 -1.229,0 0,1.05998 c 0.085,-0.115 0.225,-0.189 0.378,-0.228 0.022,0 0.043,-0.011 0.065,-0.015 0.072,-0.011 0.143,-0.018 0.218,-0.014 0.093,0 0.19,0.018 0.275,0.046 0.121,0.039 0.225,0.104 0.293,0.197"
             inkscape:connector-curvature="0"
             style="clip-rule:evenodd;fill:#941b1b;fill-rule:evenodd" />
          <path
             id="path5041"
             d="m 51.106216,997.0781 c -0.15,0.035 -0.282,0.107 -0.372,0.214 l 0,1.347 c 0.09,-0.107 0.222,-0.179 0.372,-0.215 0.09,-0.024 0.186,-0.032 0.278,-0.027 0.097,0 0.19,0.016 0.276,0.046 0.121,0.039 0.225,0.103 0.297,0.196 l 0,-1.347 c -0.072,-0.092 -0.176,-0.157 -0.297,-0.197 -0.086,-0.028 -0.179,-0.042 -0.276,-0.046 -0.092,0 -0.188,0.01 -0.278,0.029"
             inkscape:connector-curvature="0"
             style="clip-rule:evenodd;fill:#941b1b;fill-rule:evenodd" />
          <path
             id="path5043"
             d="m 50.442216,998.4431 c -0.085,-0.029 -0.182,-0.046 -0.275,-0.046 -0.075,0 -0.146,0 -0.218,0.013 -0.022,0 -0.043,0.01 -0.065,0.014 -0.128,0.033 -0.242,0.09 -0.332,0.172 -0.017,0.018 -0.032,0.036 -0.046,0.054 l 0,0.25 0,0.028 0,1.033 c 0.085,-0.115 0.225,-0.189 0.378,-0.228 0.022,-0.01 0.043,-0.011 0.065,-0.016 0.072,-0.01 0.143,-0.017 0.218,-0.014 0.093,0 0.19,0.019 0.275,0.047 0.121,0.039 0.225,0.104 0.293,0.197 l 0,-1.308 c -0.068,-0.092 -0.172,-0.156 -0.293,-0.196"
             inkscape:connector-curvature="0"
             style="clip-rule:evenodd;fill:#941b1b;fill-rule:evenodd" />
          <path
             id="path5045"
             d="m 51.106216,999.7331 c -0.15,0.036 -0.282,0.106 -0.372,0.214 l 0,0.561 1.223,0 0,-0.561 c -0.072,-0.093 -0.176,-0.158 -0.297,-0.197 -0.086,-0.028 -0.179,-0.043 -0.276,-0.047 -0.092,0 -0.188,0.01 -0.278,0.03"
             inkscape:connector-curvature="0"
             style="clip-rule:evenodd;fill:#941b1b;fill-rule:evenodd" />
          <path
             id="path5047"
             d="m 51.957216,998.6391 0,1.308 c 0.09,-0.107 0.222,-0.178 0.372,-0.214 0.088,-0.022 0.182,-0.032 0.278,-0.03 0.093,0 0.189,0.019 0.275,0.047 0.118,0.039 0.222,0.104 0.294,0.193 l 0,-1.307 c -0.072,-0.089 -0.176,-0.153 -0.294,-0.193 -0.086,-0.029 -0.182,-0.046 -0.275,-0.046 -0.096,0 -0.19,0 -0.278,0.028 -0.15,0.036 -0.282,0.108 -0.372,0.214"
             inkscape:connector-curvature="0"
             style="clip-rule:evenodd;fill:#941b1b;fill-rule:evenodd" />
          <path
             id="path5049"
             d="m 52.328216,997.0781 c 0.089,-0.022 0.182,-0.032 0.278,-0.029 0.093,0 0.19,0.018 0.276,0.046 0.118,0.04 0.221,0.104 0.293,0.194 l 0,-1.04298 -1.219,0 0,1.04598 c 0.09,-0.107 0.222,-0.179 0.372,-0.214"
             inkscape:connector-curvature="0"
             style="clip-rule:evenodd;fill:#941b1b;fill-rule:evenodd" />
          <path
             id="path5051"
             d="m 53.176216,997.2891 0,1.346 c 0.089,-0.103 0.217,-0.175 0.367,-0.211 0.09,-0.024 0.186,-0.031 0.279,-0.027 0.097,0 0.19,0.017 0.275,0.046 0.122,0.039 0.229,0.103 0.297,0.196 l 0,-1.347 c -0.068,-0.089 -0.175,-0.157 -0.297,-0.197 -0.085,-0.028 -0.178,-0.042 -0.275,-0.046 -0.093,0 -0.189,0.01 -0.279,0.029 -0.151,0.035 -0.279,0.107 -0.367,0.211"
             inkscape:connector-curvature="0"
             style="clip-rule:evenodd;fill:#941b1b;fill-rule:evenodd" />
          <path
             id="path5053"
             d="m 53.822216,999.7031 c -0.093,0 -0.189,0.01 -0.279,0.03 -0.15,0.035 -0.279,0.106 -0.367,0.21 l 0,0.565 1.217,0 0,-0.561 c -0.067,-0.089 -0.175,-0.158 -0.296,-0.197 -0.086,-0.028 -0.179,-0.043 -0.275,-0.047"
             inkscape:connector-curvature="0"
             style="clip-rule:evenodd;fill:#941b1b;fill-rule:evenodd" />
          <path
             id="path5055"
             d="m 54.393216,998.6391 0,1.308 c 0.089,-0.107 0.222,-0.178 0.372,-0.214 0.089,-0.022 0.186,-0.032 0.278,-0.03 0.097,0 0.19,0.019 0.276,0.047 0.121,0.039 0.228,0.108 0.296,0.197 l 0,-1.308 c -0.068,-0.092 -0.175,-0.156 -0.296,-0.196 -0.086,-0.029 -0.179,-0.046 -0.276,-0.046 -0.092,0 -0.189,0 -0.278,0.028 -0.15,0.036 -0.283,0.108 -0.372,0.214"
             inkscape:connector-curvature="0"
             style="clip-rule:evenodd;fill:#941b1b;fill-rule:evenodd" />
          <path
             id="path5057"
             d="m 54.765216,997.0781 c 0.09,-0.022 0.186,-0.032 0.279,-0.029 0.096,0 0.189,0.018 0.275,0.046 0.122,0.04 0.228,0.108 0.297,0.197 l 0,-1.04598 -1.223,0 0,1.04598 c 0.09,-0.103 0.222,-0.179 0.372,-0.214"
             inkscape:connector-curvature="0"
             style="clip-rule:evenodd;fill:#941b1b;fill-rule:evenodd" />
          <path
             id="path5059"
             d="m 55.615216,997.2931 0,1.346 c 0.089,-0.106 0.226,-0.178 0.372,-0.214 0.089,-0.024 0.186,-0.032 0.282,-0.028 0.094,0 0.189,0.017 0.275,0.046 0.118,0.04 0.221,0.104 0.293,0.193 l 0,-1.346 c -0.072,-0.09 -0.175,-0.155 -0.293,-0.194 -0.086,-0.028 -0.181,-0.043 -0.275,-0.046 -0.096,0 -0.193,0.01 -0.282,0.029 -0.145,0.035 -0.283,0.11 -0.372,0.214"
             inkscape:connector-curvature="0"
             style="clip-rule:evenodd;fill:#941b1b;fill-rule:evenodd" />
          <path
             id="path5061"
             d="m 56.270216,999.7031 c -0.097,0 -0.193,0.01 -0.282,0.03 -0.147,0.035 -0.283,0.106 -0.372,0.214 l 0,0.561 1.222,0 0,-0.565 c -0.072,-0.089 -0.175,-0.154 -0.294,-0.193 -0.085,-0.028 -0.181,-0.043 -0.274,-0.047"
             inkscape:connector-curvature="0"
             style="clip-rule:evenodd;fill:#941b1b;fill-rule:evenodd" />
          <path
             id="path5063"
             d="m 56.838216,998.6351 0,1.308 c 0.085,-0.104 0.218,-0.175 0.364,-0.21 0.094,-0.022 0.186,-0.033 0.282,-0.03 0.093,0 0.19,0.018 0.276,0.047 0.121,0.039 0.225,0.108 0.296,0.197 l 0,-1.309 c -0.071,-0.092 -0.175,-0.156 -0.296,-0.195 -0.086,-0.03 -0.183,-0.046 -0.276,-0.046 -0.096,0 -0.188,0 -0.282,0.027 -0.147,0.036 -0.279,0.108 -0.364,0.211"
             inkscape:connector-curvature="0"
             style="clip-rule:evenodd;fill:#941b1b;fill-rule:evenodd" />
          <path
             id="path5065"
             d="m 57.202216,997.0781 c 0.093,-0.022 0.186,-0.032 0.282,-0.029 0.093,0 0.19,0.018 0.276,0.046 0.121,0.04 0.225,0.108 0.296,0.197 l 0,-1.04598 -1.218,0 0,1.04298 c 0.085,-0.104 0.218,-0.176 0.364,-0.211"
             inkscape:connector-curvature="0"
             style="clip-rule:evenodd;fill:#941b1b;fill-rule:evenodd" />
          <path
             id="path5067"
             d="m 58.056216,997.2931 0,1.346 c 0.064,-0.078 0.15,-0.135 0.25,-0.175 l 0,-1.346 c -0.1,0.039 -0.186,0.1 -0.25,0.175"
             inkscape:connector-curvature="0"
             style="clip-rule:evenodd;fill:#941b1b;fill-rule:evenodd" />
          <path
             id="path5069"
             d="m 58.306216,999.7711 c -0.101,0.039 -0.186,0.1 -0.25,0.175 l 0,0.561 0.25,0 0,-0.736 z"
             inkscape:connector-curvature="0"
             style="clip-rule:evenodd;fill:#941b1b;fill-rule:evenodd" />
          <polygon
             transform="translate(3.7382156,874.30512)"
             id="polygon5071"
             points="45.768,137.645 54.568,137.645 54.568,127.313 54.568,126.203 45.768,126.203 "
             style="clip-rule:evenodd;fill:#fdce5d;fill-rule:evenodd" />
          <rect
             id="rect5073"
             height="8.2480001"
             width="2.6229999"
             y="1003.7011"
             x="55.108208"
             style="clip-rule:evenodd;fill:#20244f;fill-rule:evenodd" />
          <rect
             id="rect5075"
             height="2.7290001"
             width="1.5549999"
             y="993.51605"
             x="55.755211"
             style="clip-rule:evenodd;fill:#fdce5d;fill-rule:evenodd" />
          <rect
             id="rect5077"
             height="0.73900002"
             width="1.8150001"
             y="993.35205"
             x="55.626213"
             style="clip-rule:evenodd;fill:#941b1b;fill-rule:evenodd" />
          <rect
             id="rect5079"
             height="3.4119999"
             width="2.0369999"
             y="1003.7021"
             x="50.662201"
             style="clip-rule:evenodd;fill:#ffffff;fill-rule:evenodd" />
          <rect
             id="rect5081"
             height="3.4119999"
             width="1.426"
             y="1003.7021"
             x="53.005211"
             style="clip-rule:evenodd;fill:#ffffff;fill-rule:evenodd" />
          <path
             id="path5083"
             d="m 66.335216,1007.6061 c 2.944,0 5.345,-2.4 5.345,-5.34 0,-2.944 -2.401,-5.345 -5.345,-5.345 -2.941,0 -5.342,2.401 -5.342,5.345 0,2.94 2.401,5.34 5.342,5.34"
             inkscape:connector-curvature="0"
             style="clip-rule:evenodd;fill:#57a633;fill-rule:evenodd" />
          <path
             id="path5085"
             d="m 66.703216,1001.9691 0,4.197 c 0.311,-0.082 0.608,-0.271 0.851,-0.513 0.353,-0.354 0.589,-0.808 0.589,-1.201 l 0.483,0 c 0,0.518 -0.29,1.103 -0.73,1.543 -0.332,0.329 -0.75,0.582 -1.193,0.667 l 0,5.56 -0.636,0 0,-5.544 c -0.714,-0.079 -1.329,-0.408 -1.794,-0.872 -0.582,-0.579 -0.924,-1.376 -0.924,-2.148 l 0.485,0 c 0,0.647 0.289,1.315 0.783,1.805 0.378,0.378 0.875,0.65 1.45,0.725 l 0,-4.219 0.636,0 z"
             inkscape:connector-curvature="0"
             style="clip-rule:evenodd;fill:#8b6021;fill-rule:evenodd" />
          <rect
             id="rect5087"
             height="21.906"
             width="11.798"
             y="990.05005"
             x="145.90321"
             style="clip-rule:evenodd;fill:#f1948a;fill-rule:evenodd" />
          <path
             id="path5089"
             d="m 154.68922,1002.2331 c 0.843,0 1.533,0.689 1.533,1.533 l 0,8.191 -3.062,0 0,-8.191 c 0,-0.844 0.689,-1.533 1.529,-1.533"
             inkscape:connector-curvature="0"
             style="clip-rule:evenodd;fill:#20244f;fill-rule:evenodd" />
          <path
             id="path5091"
             d="m 152.35722,1005.3661 0,-0.425 c 0,-1.324 -1.042,-2.419 -2.35,-2.505 l 0,2.93 2.35,0 z m -2.35,3.276 0,0 2.35,0 0,-2.938 -2.35,0 0,2.938 z m -2.681,-2.938 0,0 0,2.938 2.346,0 0,-2.938 -2.346,0 z m 2.346,-3.269 0,0 c -1.304,0.086 -2.346,1.181 -2.346,2.505 l 0,0.425 2.346,0 0,-2.93 z"
             inkscape:connector-curvature="0"
             style="clip-rule:evenodd;fill:#ffffff;fill-rule:evenodd" />
          <rect
             id="rect5093"
             height="1.579"
             width="11.798"
             y="988.47205"
             x="145.90321"
             style="clip-rule:evenodd;fill:#20244f;fill-rule:evenodd" />
          <line
             id="line5095"
             y2="984.2851"
             x2="151.92622"
             y1="988.47205"
             x1="151.92622"
             stroke-miterlimit="10"
             style="fill:none;stroke:#20244f;stroke-miterlimit:10" />
          <line
             id="line5097"
             y2="985.32507"
             x2="154.22522"
             y1="985.32507"
             x1="149.62923"
             stroke-miterlimit="10"
             style="fill:none;stroke:#20244f;stroke-miterlimit:10" />
          <line
             id="line5099"
             y2="986.3681"
             x2="149.62923"
             y1="984.27905"
             x1="149.62923"
             stroke-miterlimit="10"
             style="fill:none;stroke:#20244f;stroke-miterlimit:10" />
          <line
             id="line5101"
             y2="986.3681"
             x2="150.79022"
             y1="984.27905"
             x1="150.79022"
             stroke-miterlimit="10"
             style="fill:none;stroke:#20244f;stroke-miterlimit:10" />
          <line
             id="line5103"
             y2="986.3681"
             x2="153.06322"
             y1="984.27905"
             x1="153.06322"
             stroke-miterlimit="10"
             style="fill:none;stroke:#20244f;stroke-miterlimit:10" />
          <line
             id="line5105"
             y2="986.3681"
             x2="154.22421"
             y1="984.27905"
             x1="154.22421"
             stroke-miterlimit="10"
             style="fill:none;stroke:#20244f;stroke-miterlimit:10" />
          <path
             id="path5107"
             d="m 152.36622,996.7041 -0.008,-0.42498 c -0.033,-1.328 -1.104,-2.424 -2.412,-2.509 l 0.074,2.93398 2.346,0 z m -2.264,3.273 0,0 2.346,0 -0.074,-2.938 -2.345,0 0.073,2.938 z m -2.755,-2.938 0,0 0.074,2.938 2.346,0 -0.073,-2.938 -2.347,0 z m 2.265,-3.26898 0,0 c -1.304,0.085 -2.318,1.181 -2.285,2.509 l 0.012,0.42498 2.346,0 -0.073,-2.93398 z"
             inkscape:connector-curvature="0"
             style="clip-rule:evenodd;fill:#ffffff;fill-rule:evenodd" />
          <rect
             id="rect5109"
             height="0.84799999"
             width="6.0310001"
             y="1011.1581"
             x="151.67522"
             style="clip-rule:evenodd;fill:#941b1b;fill-rule:evenodd" />
          <rect
             id="rect5111"
             height="0.84799999"
             width="4.0190001"
             y="1010.3101"
             x="152.68121"
             style="clip-rule:evenodd;fill:#941b1b;fill-rule:evenodd" />
          <path
             id="path5113"
             d="m 179.77022,1001.1611 c -1.761,0 -3.189,1.428 -3.189,3.189 l 0,7.846 6.378,0 0,-7.846 c 0,-1.761 -1.427,-3.189 -3.189,-3.189"
             inkscape:connector-curvature="0"
             style="clip-rule:evenodd;fill:#941b1b;fill-rule:evenodd" />
          <path
             id="path5115"
             d="m 179.77022,992.58312 c -0.809,0 -1.465,0.655 -1.465,1.464 l 0,3.60498 2.93,0 0,-3.60498 c 0,-0.809 -0.656,-1.464 -1.465,-1.464"
             inkscape:connector-curvature="0"
             style="clip-rule:evenodd;fill:#9fd6f1;fill-rule:evenodd" />
          <path
             id="path5117"
             d="m 173.88622,1005.0581 c -0.579,0 -1.048,0.47 -1.048,1.049 l 0,2.577 2.096,0 0,-2.577 c 0,-0.578 -0.469,-1.049 -1.048,-1.049"
             inkscape:connector-curvature="0"
             style="clip-rule:evenodd;fill:#941b1b;fill-rule:evenodd" />
          <path
             id="path5119"
             d="m 185.65422,1005.0581 c -0.578,0 -1.047,0.47 -1.047,1.049 l 0,2.577 2.095,0 0,-2.577 c 0,-0.578 -0.469,-1.049 -1.048,-1.049"
             inkscape:connector-curvature="0"
             style="clip-rule:evenodd;fill:#941b1b;fill-rule:evenodd" />
          <path
             id="path5121"
             d="m 179.77022,993.02012 c -0.33,0 -0.597,0.267 -0.597,0.595 l -0.247,1.468 1.689,0 -0.249,-1.468 c 0,-0.328 -0.267,-0.595 -0.596,-0.595"
             inkscape:connector-curvature="0"
             style="clip-rule:evenodd;fill:#941b1b;fill-rule:evenodd" />
          <line
             id="line5123"
             y2="984.13605"
             x2="179.77022"
             y1="988.73309"
             x1="179.77022"
             stroke-miterlimit="10"
             style="fill:none;stroke:#841919;stroke-width:4.28700018;stroke-miterlimit:10" />
          <line
             id="line5125"
             y2="985.70105"
             x2="181.37122"
             y1="985.70105"
             x1="178.17023"
             stroke-miterlimit="10"
             style="fill:none;stroke:#841919;stroke-width:4.28700018;stroke-miterlimit:10" />
          <rect
             id="rect5127"
             height="16.881001"
             width="0.49700001"
             y="994.2511"
             x="195.25124"
             style="clip-rule:evenodd;fill:#941b1b;fill-rule:evenodd" />
          <path
             id="path5129"
             d="m 195.25122,994.81612 c 0,-0.743 -0.307,-1.454 -0.826,-1.972 -0.489,-0.489 -1.168,-0.807 -1.95,-0.807 l 0,-0.493 c 0.921,0 1.721,0.372 2.301,0.951 0.607,0.61 0.972,1.446 0.972,2.321 l -0.497,0 z"
             inkscape:connector-curvature="0"
             style="clip-rule:evenodd;fill:#941b1b;fill-rule:evenodd" />
          <rect
             id="rect5131"
             height="0.63200003"
             width="3.023"
             y="991.54907"
             x="189.45222"
             style="clip-rule:evenodd;fill:#941b1b;fill-rule:evenodd" />
          <path
             id="path5133"
             d="m 189.45222,992.18212 1.697,0 0,0.208 c 0,0.114 -0.097,0.207 -0.207,0.207 l -1.286,0 c -0.111,0 -0.204,-0.093 -0.204,-0.207 l 0,-0.208 z"
             inkscape:connector-curvature="0"
             style="clip-rule:evenodd;fill:#ffffff;fill-rule:evenodd" />
          <path
             id="path5135"
             d="m 195.74822,994.81612 c 0,-0.743 0.307,-1.454 0.825,-1.972 0.489,-0.489 1.168,-0.807 1.952,-0.807 l 0,-0.493 c -0.923,0 -1.723,0.372 -2.302,0.951 -0.607,0.61 -0.972,1.446 -0.972,2.321 l 0.497,0 z"
             inkscape:connector-curvature="0"
             style="clip-rule:evenodd;fill:#941b1b;fill-rule:evenodd" />
          <rect
             id="rect5137"
             height="0.63200003"
             width="3.0220001"
             y="991.54907"
             x="198.52522"
             style="clip-rule:evenodd;fill:#941b1b;fill-rule:evenodd" />
          <path
             id="path5139"
             d="m 201.54722,992.18212 -1.698,0 0,0.208 c 0,0.114 0.094,0.207 0.208,0.207 l 1.286,0 c 0.111,0 0.204,-0.093 0.204,-0.207 l 0,-0.208 z"
             inkscape:connector-curvature="0"
             style="clip-rule:evenodd;fill:#ffffff;fill-rule:evenodd" />
          <path
             id="path5141"
             d="m 193.97522,1011.9571 0.654,0 1.676,0 0.697,0 0,-0.543 -0.697,0 0,-1.904 c 0,-0.461 -0.379,-0.836 -0.84,-0.836 -0.461,0 -0.836,0.375 -0.836,0.836 l 0,1.904 -0.654,0 0,0.543 z"
             inkscape:connector-curvature="0"
             style="clip-rule:evenodd;fill:#941b1b;fill-rule:evenodd" />
          <path
             id="path5143"
             d="m 189.17922,1004.6521 c -0.005,0.053 -0.009,0.107 -0.009,0.162 0,1.107 1.133,2.004 2.531,2.004 1.399,0 2.533,-0.897 2.533,-2.004 0,-0.055 -0.005,-0.109 -0.011,-0.162 l -5.044,0 z"
             inkscape:connector-curvature="0"
             style="clip-rule:evenodd;fill:#941b1b;fill-rule:evenodd" />
          <line
             id="line5145"
             y2="1005.7751"
             x2="193.92522"
             y1="1005.7751"
             x1="189.47923"
             stroke-miterlimit="10"
             style="fill:none;stroke:#ffffff;stroke-width:2;stroke-miterlimit:10" />
          <line
             id="line5147"
             y2="1006.0491"
             x2="189.70723"
             y1="1005.8271"
             x1="189.70723"
             stroke-miterlimit="10"
             style="fill:none;stroke:#ffffff;stroke-width:2;stroke-miterlimit:10" />
          <line
             id="line5149"
             y2="1006.6971"
             x2="192.57121"
             y1="1005.8271"
             x1="192.57121"
             stroke-miterlimit="10"
             style="fill:none;stroke:#ffffff;stroke-width:2;stroke-miterlimit:10" />
          <line
             id="line5151"
             y2="1005.8041"
             x2="191.12422"
             y1="1004.6521"
             x1="191.12422"
             stroke-miterlimit="10"
             style="fill:none;stroke:#ffffff;stroke-width:2;stroke-miterlimit:10" />
          <rect
             id="rect5153"
             height="10.997"
             width="11.798"
             y="1000.9521"
             x="202.70122"
             style="clip-rule:evenodd;fill:#c88b38;fill-rule:evenodd" />
          <rect
             id="rect5155"
             height="1.5829999"
             width="12.545"
             y="1000.3831"
             x="201.95424"
             style="clip-rule:evenodd;fill:#20244f;fill-rule:evenodd" />
          <line
             id="line5157"
             y2="997.36609"
             x2="210.44221"
             y1="1000.4911"
             x1="210.44221"
             stroke-miterlimit="10"
             style="fill:none;stroke:#20244f;stroke-width:2;stroke-linecap:round;stroke-linejoin:round;stroke-miterlimit:10" />
          <line
             id="line5159"
             y2="998.1391"
             x2="211.76024"
             y1="998.1391"
             x1="209.11824"
             stroke-miterlimit="10"
             style="fill:none;stroke:#20244f;stroke-width:2;stroke-linecap:round;stroke-linejoin:round;stroke-miterlimit:10" />
          <line
             id="line5161"
             y2="998.9201"
             x2="209.11824"
             y1="997.35809"
             x1="209.11824"
             stroke-miterlimit="10"
             style="fill:none;stroke:#20244f;stroke-width:2;stroke-linecap:round;stroke-linejoin:round;stroke-miterlimit:10" />
          <line
             id="line5163"
             y2="998.9201"
             x2="211.76024"
             y1="997.35809"
             x1="211.76024"
             stroke-miterlimit="10"
             style="fill:none;stroke:#20244f;stroke-width:2;stroke-linecap:round;stroke-linejoin:round;stroke-miterlimit:10" />
          <rect
             id="rect5165"
             height="3.803"
             width="2.0539999"
             y="1004.3351"
             x="204.83324"
             style="clip-rule:evenodd;fill:#ffffff;fill-rule:evenodd" />
          <rect
             id="rect5167"
             height="3.803"
             width="2.053"
             y="1004.3351"
             x="207.18324"
             style="clip-rule:evenodd;fill:#ffffff;fill-rule:evenodd" />
          <rect
             id="rect5169"
             height="7.5929999"
             width="3.1199999"
             y="1004.3351"
             x="209.95824"
             style="clip-rule:evenodd;fill:#ffffff;fill-rule:evenodd" />
          <rect
             id="rect5171"
             height="3.6040001"
             width="1.926"
             y="989.25006"
             x="215.24324"
             style="clip-rule:evenodd;fill:#fdce5d;fill-rule:evenodd" />
          <polygon
             transform="translate(3.7382156,874.30512)"
             id="polygon5173"
             points="210.761,137.645 210.761,120.287 216.532,114.482 222.249,120.219 222.249,137.645 "
             style="clip-rule:evenodd;fill:#fdce5d;fill-rule:evenodd" />
          <polygon
             transform="translate(3.7382156,874.30512)"
             id="polygon5175"
             points="223.993,120.564 223.296,121.266 216.539,114.511 209.879,121.165 209.182,120.469 215.839,113.81 216.539,113.114 217.235,113.81 "
             style="clip-rule:evenodd;fill:#941b1b;fill-rule:evenodd" />
          <rect
             id="rect5177"
             height="9.6090002"
             width="3.655"
             y="1002.3401"
             x="218.52724"
             style="clip-rule:evenodd;fill:#20244f;fill-rule:evenodd" />
          <rect
             id="rect5179"
             height="2.9619999"
             width="1.658"
             y="995.87006"
             x="222.84624"
             style="clip-rule:evenodd;fill:#ffffff;fill-rule:evenodd" />
          <rect
             id="rect5181"
             height="2.9619999"
             width="1.655"
             y="995.87006"
             x="220.72322"
             style="clip-rule:evenodd;fill:#ffffff;fill-rule:evenodd" />
          <rect
             id="rect5193"
             height="0.405"
             width="21.862"
             y="1005.6961"
             x="228.29424"
             style="clip-rule:evenodd;fill:#3b3634;fill-rule:evenodd" />
          <path
             id="path5195"
             d="m 228.58022,1005.4791 c 0.207,0 0.375,0.781 0.375,1.746 0,0.963 -0.168,1.745 -0.375,1.745 -0.206,0 -0.374,-0.782 -0.374,-1.745 0,-0.965 0.168,-1.746 0.374,-1.746"
             inkscape:connector-curvature="0"
             style="clip-rule:evenodd;fill:#3b3634;fill-rule:evenodd" />
          <path
             id="path5661"
             d="m 44.642216,1001.1441 -1.961,0 0,-2.097 1.961,0 0,2.097 z m 0,2.493 0,0 -1.961,0 0,-2.096 1.961,0 0,2.096 z m 2.209,0 0,0 -1.962,0 0,-2.096 1.962,0 0,2.096 z m 2.208,0 0,0 -1.962,0 0,-2.096 1.962,0 0,2.096 z m -13.249,0 0,0 -1.962,0 0,-2.096 1.962,0 0,2.096 z m 2.208,0 0,0 -1.961,0 0,-2.096 1.961,0 0,2.096 z m 2.209,0 0,0 -1.962,0 0,-2.096 1.962,0 0,2.096 z m 2.208,0 0,0 -1.961,0 0,-2.096 1.961,0 0,2.096 z m -6.625,-2.493 0,0 -1.962,0 0,-2.097 1.962,0 0,2.097 z m 2.208,0 0,0 -1.961,0 0,-2.097 1.961,0 0,2.097 z m 2.209,0 0,0 -1.962,0 0,-2.097 1.962,0 0,2.097 z m 6.624,0 0,0 -1.962,0 0,-2.097 1.962,0 0,2.097 z m 2.208,0 0,0 -1.962,0 0,-2.097 1.962,0 0,2.097 z m -6.624,0 0,0 -1.961,0 0,-2.097 1.961,0 0,2.097 z"
             inkscape:connector-curvature="0"
             style="clip-rule:evenodd;fill:#ffffff;fill-rule:evenodd" />
          <rect
             id="rect5685"
             height="5.6420002"
             width="3.523"
             y="1006.2411"
             x="91.482216"
             style="clip-rule:evenodd;fill:#ffdd10;fill-rule:evenodd" />
          <rect
             id="rect5687"
             height="5.6420002"
             width="3.5220001"
             y="1006.2411"
             x="95.590218"
             style="clip-rule:evenodd;fill:#e2161b;fill-rule:evenodd" />
          <path
             id="path5689"
             d="m 93.168216,1007.2411 c 0,0.418 -0.339,0.757 -0.758,0.757 -0.418,0 -0.757,-0.339 -0.757,-0.757 0,-0.418 0.339,-0.758 0.757,-0.758 0.419,0 0.758,0.34 0.758,0.758"
             inkscape:connector-curvature="0"
             style="clip-rule:evenodd;fill:#e2161b;fill-rule:evenodd" />
          <path
             id="path5691"
             d="m 93.197216,1009.0131 c 0,0.417 -0.339,0.756 -0.757,0.756 -0.418,0 -0.758,-0.339 -0.758,-0.756 0,-0.419 0.34,-0.758 0.758,-0.758 0.418,0 0.757,0.34 0.757,0.758"
             inkscape:connector-curvature="0"
             style="clip-rule:evenodd;fill:#e2161b;fill-rule:evenodd" />
          <path
             id="path5693"
             d="m 93.163216,1010.7851 c 0,0.418 -0.339,0.758 -0.758,0.758 -0.418,0 -0.757,-0.34 -0.757,-0.758 0,-0.418 0.339,-0.757 0.757,-0.757 0.419,0 0.758,0.339 0.758,0.757"
             inkscape:connector-curvature="0"
             style="clip-rule:evenodd;fill:#e2161b;fill-rule:evenodd" />
          <path
             id="path5695"
             d="m 94.835216,1007.2411 c 0,0.418 -0.339,0.757 -0.758,0.757 -0.418,0 -0.757,-0.339 -0.757,-0.757 0,-0.418 0.339,-0.758 0.757,-0.758 0.419,0 0.758,0.34 0.758,0.758"
             inkscape:connector-curvature="0"
             style="clip-rule:evenodd;fill:#e2161b;fill-rule:evenodd" />
          <path
             id="path5697"
             d="m 94.864216,1009.0131 c 0,0.417 -0.339,0.756 -0.758,0.756 -0.418,0 -0.757,-0.339 -0.757,-0.756 0,-0.419 0.339,-0.758 0.757,-0.758 0.42,0 0.758,0.34 0.758,0.758"
             inkscape:connector-curvature="0"
             style="clip-rule:evenodd;fill:#e2161b;fill-rule:evenodd" />
          <path
             id="path5699"
             d="m 94.830216,1010.7851 c 0,0.418 -0.339,0.758 -0.757,0.758 -0.419,0 -0.758,-0.34 -0.758,-0.758 0,-0.418 0.339,-0.757 0.758,-0.757 0.418,0 0.757,0.339 0.757,0.757"
             inkscape:connector-curvature="0"
             style="clip-rule:evenodd;fill:#e2161b;fill-rule:evenodd" />
          <path
             id="path5701"
             d="m 97.280216,1007.2411 c 0,0.418 -0.339,0.757 -0.757,0.757 -0.419,0 -0.758,-0.339 -0.758,-0.757 0,-0.418 0.339,-0.758 0.758,-0.758 0.419,0 0.757,0.34 0.757,0.758"
             inkscape:connector-curvature="0"
             style="clip-rule:evenodd;fill:#ffdd10;fill-rule:evenodd" />
          <path
             id="path5703"
             d="m 97.310216,1009.0131 c 0,0.417 -0.339,0.756 -0.757,0.756 -0.419,0 -0.758,-0.339 -0.758,-0.756 0,-0.419 0.339,-0.758 0.758,-0.758 0.418,0 0.757,0.34 0.757,0.758"
             inkscape:connector-curvature="0"
             style="clip-rule:evenodd;fill:#ffdd10;fill-rule:evenodd" />
          <path
             id="path5705"
             d="m 97.276216,1010.7851 c 0,0.418 -0.339,0.758 -0.757,0.758 -0.418,0 -0.758,-0.34 -0.758,-0.758 0,-0.418 0.34,-0.757 0.758,-0.757 0.418,0 0.757,0.339 0.757,0.757"
             inkscape:connector-curvature="0"
             style="clip-rule:evenodd;fill:#ffdd10;fill-rule:evenodd" />
          <path
             id="path5707"
             d="m 98.948216,1007.2411 c 0,0.418 -0.339,0.757 -0.758,0.757 -0.418,0 -0.757,-0.339 -0.757,-0.757 0,-0.418 0.339,-0.758 0.757,-0.758 0.419,0 0.758,0.34 0.758,0.758"
             inkscape:connector-curvature="0"
             style="clip-rule:evenodd;fill:#ffdd10;fill-rule:evenodd" />
          <path
             id="path5709"
             d="m 98.977216,1009.0131 c 0,0.417 -0.339,0.756 -0.758,0.756 -0.417,0 -0.757,-0.339 -0.757,-0.756 0,-0.419 0.34,-0.758 0.757,-0.758 0.419,0 0.758,0.34 0.758,0.758"
             inkscape:connector-curvature="0"
             style="clip-rule:evenodd;fill:#ffdd10;fill-rule:evenodd" />
          <path
             id="path5711"
             d="m 98.944216,1010.7851 c 0,0.418 -0.339,0.758 -0.757,0.758 -0.419,0 -0.758,-0.34 -0.758,-0.758 0,-0.418 0.339,-0.757 0.758,-0.757 0.418,0 0.757,0.339 0.757,0.757"
             inkscape:connector-curvature="0"
             style="clip-rule:evenodd;fill:#ffdd10;fill-rule:evenodd" />
          <rect
             id="rect5713"
             height="0.43099999"
             width="256.24777"
             y="1011.9411"
             x="3.7452173"
             style="clip-rule:evenodd;fill:#941b1b;fill-rule:evenodd" />
        </g>
      </g>
    </g>
  </g>
</svg>
