<svg width="50" height="30" viewBox="0 0 50 30" fill="none" xmlns="http://www.w3.org/2000/svg">
<path d="M2.92396 18.7069C0.541503 17.7825 0.170649 20.8511 1.85635 21.4931L2.92396 18.7069Z" fill="#D9D9D9"/>
<path d="M48.5756 21.7884C50.767 21.1464 50.2613 18.5657 48.2048 18.5657L48.5756 21.7884Z" fill="#D9D9D9"/>
<path d="M1.33631 25.2679L48.56 25.2679C48.56 25.2679 50.0546 24.7158 49.9985 23.4319C49.9423 22.1479 48.56 21.8013 48.56 21.8013C49.0107 15.1133 44.4249 12.4761 43.8175 12.1461C43.2102 11.8161 41.34 11.4977 39.9629 11.0547C39.0301 10.7547 37.8601 10.1363 37.3669 9.55254C32.2536 1.27116 29.3324 0.000512315 22.3979 3.86993e-05C12.0855 -0.0203579 3.84157 8.02465 2.84367 17.3845C2.63472 19.3443 1.98952 21.072 1.33631 21.5445C1.33631 21.5445 0.169026 21.8912 0.0116963 23.2393C-0.145637 24.5874 1.33631 25.2679 1.33631 25.2679Z" fill="#FF0202"/>
<path d="M22 3V11H9C12.8146 5.74119 15.8314 3.24802 22 3Z" fill="white"/>
<path d="M24 3V11H34C30.9299 5.4955 28.8836 3.33582 24 3Z" fill="white"/>
<path d="M27.3554 15.4971C27.7694 15.0191 27.8553 14.7304 27.3554 14.1233H25.2314C24.7521 14.7391 24.8959 15.0161 25.2314 15.4971H27.3554Z" fill="white"/>
<path d="M32.154 23.2007C32.154 26.6966 34.6345 29.5305 37.6944 29.5305C40.7542 29.5305 43.2347 26.6966 43.2347 23.2007C43.2347 19.7049 40.7542 16.8709 37.6944 16.8709C34.6345 16.8709 32.154 19.7049 32.154 23.2007Z" fill="#3A3A3A"/>
<path d="M34.4016 23.2135C34.4016 25.2841 35.8708 26.9626 37.6831 26.9626C39.4954 26.9626 40.9646 25.2841 40.9646 23.2135C40.9646 21.143 39.4954 19.4645 37.6831 19.4645C35.8708 19.4645 34.4016 21.143 34.4016 23.2135Z" fill="#D9D9D9"/>
<path d="M6.68867 23.2007C6.68867 26.6966 9.16917 29.5305 12.229 29.5305C15.2889 29.5305 17.7694 26.6966 17.7694 23.2007C17.7694 19.7049 15.2889 16.8709 12.229 16.8709C9.16917 16.8709 6.68867 19.7049 6.68867 23.2007Z" fill="#3A3A3A"/>
<path d="M8.93623 23.2135C8.93623 25.2841 10.4054 26.9626 12.2177 26.9626C14.0301 26.9626 15.4992 25.2841 15.4992 23.2135C15.4992 21.143 14.0301 19.4645 12.2177 19.4645C10.4054 19.4645 8.93623 21.143 8.93623 23.2135Z" fill="#D9D9D9"/>
</svg>
