<svg width="200" height="89" viewBox="0 0 200 89" fill="none" xmlns="http://www.w3.org/2000/svg">
<path d="M188.304 65.4951C197.834 62.2586 199.317 73.0021 192.575 75.2497L188.304 65.4951Z" fill="#D9D9D9"/>
<path d="M103.03 8.27118V39.8275H60.0559C73.2493 18.1148 82.0433 9.59584 103.03 8.27118Z" fill="#797979" fill-opacity="0.75"/>
<path d="M5.69746 76.2837C-3.0682 74.0361 -1.04535 65.0007 7.18088 65.0007L5.69746 76.2837Z" fill="#D9D9D9"/>
<path fill-rule="evenodd" clip-rule="evenodd" d="M194.655 88.4659L5.76012 88.4659C5.76012 88.4659 -0.21854 86.5329 0.00620868 82.0377C0.230958 77.5425 5.76012 76.3288 5.76012 76.3288C3.95738 52.9133 22.3004 43.6802 24.7299 42.5248C26.1062 41.8703 29.1037 41.2288 32.4453 40.5137C35.0022 39.9665 37.7606 39.3762 40.1485 38.7039C43.8795 37.6535 48.5598 35.4883 50.5324 33.4445C70.9856 4.45047 82.6704 0.00179393 110.408 0.000135745C151.658 -0.0712751 184.634 28.0953 188.625 60.8653C189.461 67.7268 192.042 73.7756 194.655 75.4297C194.655 75.4297 199.324 76.6435 199.953 81.3635C200.583 86.0834 194.655 88.4659 194.655 88.4659ZM112.2 8.13632V39.2881H171.177C153.872 18.8105 140.185 9.10212 112.2 8.13632ZM102.671 39.4679V7.91156C81.6837 9.23622 72.8898 17.7552 59.6963 39.4679H81.1834H102.671Z" fill="#FF0202"/>
<path d="M90.5783 54.2571C88.9221 52.5835 88.5786 51.5729 90.5783 49.4473H99.0743C100.991 51.6033 100.416 52.5731 99.0743 54.2571H90.5783Z" fill="white"/>
<path d="M112.2 8.27118V39.423H171.178C153.872 18.9453 140.186 9.23698 112.2 8.27118Z" fill="#797979" fill-opacity="0.75"/>
</svg>
