<svg width="200" height="89" viewBox="0 0 200 89" fill="none" xmlns="http://www.w3.org/2000/svg">
<path d="M188.304 65.4951C197.834 62.2586 199.317 73.0021 192.575 75.2497L188.304 65.4951Z" fill="#D9D9D9"/>
<path d="M5.69746 76.2836C-3.06819 74.036 -1.04535 65.0007 7.18088 65.0007L5.69746 76.2836Z" fill="#D9D9D9"/>
<path d="M194.655 88.4659L5.7601 88.4659C5.7601 88.4659 -0.218568 86.5329 0.0061814 82.0377C0.23093 77.5425 5.76009 76.3288 5.76009 76.3288C3.95735 52.9133 22.3004 43.6802 24.7299 42.5248C27.1593 41.3694 34.6399 40.2548 40.1484 38.7039C43.8795 37.6535 48.5598 35.4883 50.5324 33.4445C70.9856 4.45047 82.6704 0.00179367 110.408 0.000135491C151.658 -0.0712753 184.634 28.0952 188.625 60.8653C189.461 67.7268 192.042 73.7755 194.655 75.4297C194.655 75.4297 199.324 76.6435 199.953 81.3634C200.583 86.0834 194.655 88.4659 194.655 88.4659Z" fill="#FF0202"/>
<path d="M112.2 8.13632V39.2881H171.177C153.872 18.8105 140.185 9.10212 112.2 8.13632Z" fill="white"/>
<path d="M102.671 7.91156V39.4679H59.6963C72.8898 17.7552 81.6838 9.23622 102.671 7.91156Z" fill="white"/>
<path d="M90.5784 54.2571C88.9222 52.5835 88.5788 51.5729 90.5784 49.4473H99.0744C100.992 51.6033 100.416 52.5731 99.0744 54.2571H90.5784Z" fill="white"/>
</svg>
