<?xml version="1.0" standalone="no"?>
<!DOCTYPE svg PUBLIC "-//W3C//DTD SVG 20010904//EN"
 "http://www.w3.org/TR/2001/REC-SVG-20010904/DTD/svg10.dtd">
<svg version="1.0" xmlns="http://www.w3.org/2000/svg"
 width="1600.000000pt" height="1600.000000pt" viewBox="0 0 1600.000000 1600.000000"
 preserveAspectRatio="xMidYMid meet">
<metadata>
Created by potrace 1.14, written by Peter Selinger 2001-2017
</metadata>
<g transform="translate(0.000000,1600.000000) scale(0.100000,-0.100000)"
fill="#000000" stroke="none">
<path d="M6855 12794 c-936 -59 -1717 -266 -2506 -665 -763 -386 -1435 -916
-1994 -1574 -808 -952 -1310 -2104 -1445 -3320 -35 -317 -116 -660 -213 -901
-54 -133 -77 -179 -133 -266 -68 -107 -108 -144 -208 -195 -208 -107 -337
-304 -353 -538 -15 -228 128 -453 378 -594 l56 -31 900 0 900 0 33 -92 c291
-826 1033 -1342 1808 -1257 501 54 954 346 1259 810 74 113 170 308 218 441
l33 93 2400 3 2400 2 33 -97 c110 -318 337 -654 581 -858 363 -305 790 -442
1226 -394 202 22 377 75 562 170 272 141 502 350 686 626 79 118 192 346 231
465 l28 88 898 0 899 0 71 36 c299 150 443 395 382 652 -40 168 -152 294 -345
386 -41 20 -80 36 -86 36 -8 0 -10 54 -6 203 18 733 -163 1396 -531 1949 -134
202 -207 290 -396 478 -217 216 -475 410 -650 487 -71 31 -259 84 -635 177
-617 154 -868 249 -1146 436 -175 117 -206 151 -336 357 -906 1443 -1611 2181
-2426 2542 -430 190 -852 281 -1533 331 -141 11 -928 21 -1040 14z m185 -2234
l0 -1280 -2075 0 c-1141 0 -2075 4 -2075 8 0 13 340 462 478 630 200 245 335
395 542 603 408 409 731 649 1171 868 405 202 839 330 1364 401 144 19 407 42
553 48 l42 2 0 -1280z m910 1254 c248 -29 576 -104 765 -176 729 -278 1233
-781 1897 -1893 127 -212 258 -444 258 -456 0 -5 -609 -9 -1595 -9 l-1595 0 0
1281 0 1280 73 -6 c39 -4 128 -13 197 -21z m839 -3579 c47 -66 71 -124 71
-178 0 -58 -16 -99 -66 -166 l-38 -51 -342 0 -342 0 -30 48 c-46 71 -62 116
-62 174 0 54 28 129 71 189 l20 29 343 0 343 0 32 -45z m-4644 -1695 c390
-104 686 -443 786 -900 30 -136 33 -378 6 -513 -53 -265 -168 -487 -343 -660
-92 -91 -179 -152 -296 -207 -360 -168 -783 -85 -1077 211 -173 174 -285 391
-338 655 -26 131 -23 376 5 509 53 250 151 445 307 613 146 158 369 281 565
311 99 15 291 6 385 -19z m8130 5 c290 -76 532 -274 679 -555 107 -205 149
-382 149 -620 0 -224 -41 -404 -133 -589 -203 -405 -597 -643 -997 -602 -122
13 -202 35 -312 87 -318 150 -542 451 -627 844 -26 120 -26 401 -1 520 57 267
165 469 347 650 144 143 322 240 507 275 96 18 301 13 388 -10z"/>
</g>
</svg>
