<?xml version="1.0" standalone="no"?>
<!DOCTYPE svg PUBLIC "-//W3C//DTD SVG 20010904//EN"
 "http://www.w3.org/TR/2001/REC-SVG-20010904/DTD/svg10.dtd">
<svg version="1.0" xmlns="http://www.w3.org/2000/svg"
 width="500.000000pt" height="500.000000pt" viewBox="0 0 500.000000 500.000000"
 preserveAspectRatio="xMidYMid meet">
<metadata>
Created by potrace 1.14, written by Peter Selinger 2001-2017
</metadata>
<g transform="translate(0.000000,500.000000) scale(0.100000,-0.100000)"
fill="#000000" stroke="none">
<path d="M2517 3809 c-215 -23 -413 -74 -554 -144 -164 -81 -312 -218 -530
-490 -77 -96 -158 -184 -202 -221 -83 -70 -126 -86 -341 -128 -69 -14 -154
-34 -188 -45 -131 -40 -286 -158 -378 -286 -24 -34 -66 -109 -93 -166 -59
-121 -87 -253 -76 -349 l7 -57 -30 -6 c-43 -9 -90 -53 -102 -96 -13 -50 3
-103 47 -152 53 -59 100 -69 324 -69 l187 0 47 -96 c37 -76 61 -111 114 -163
225 -222 576 -227 803 -12 71 66 123 142 153 224 l18 47 787 0 787 0 18 -47
c123 -330 508 -479 818 -316 125 66 227 180 272 305 l21 57 204 4 c219 4 268
14 319 60 30 28 51 77 51 119 0 40 -30 106 -58 132 -21 19 -21 19 -2 44 29 36
29 198 0 234 -30 38 -72 51 -145 46 l-64 -6 -6 42 c-76 503 -340 913 -775
1205 -277 186 -601 299 -950 330 -131 12 -368 12 -483 0z m568 -194 c366 -59
703 -233 970 -500 95 -94 225 -250 225 -269 0 -3 -335 -6 -745 -6 l-745 0 0
401 0 402 103 -7 c56 -4 143 -13 192 -21z m-525 -380 l0 -395 -535 0 c-294 0
-535 3 -535 7 0 18 102 184 170 276 246 330 527 502 828 506 l72 1 0 -395z
m-112 -561 c27 -19 30 -78 5 -106 -13 -15 -31 -18 -101 -18 -101 0 -122 12
-122 71 0 54 25 69 120 69 52 0 82 -5 98 -16z m-1173 -665 c204 -102 205 -393
1 -502 -33 -17 -58 -22 -126 -22 -102 0 -146 19 -208 90 -138 157 -69 388 138
456 44 15 144 3 195 -22z m2699 2 c217 -97 212 -412 -8 -512 -63 -29 -168 -26
-234 7 -99 49 -152 135 -152 249 0 136 82 241 215 276 43 11 132 1 179 -20z"/>
</g>
</svg>
